<?xml version="1.0" encoding="UTF-8" standalone="no"?>
<!DOCTYPE svg PUBLIC "-//W3C//DTD SVG 1.1//EN" "http://www.w3.org/Graphics/SVG/1.1/DTD/svg11.dtd">
<svg width="100%" height="100%" viewBox="0 0 2043 177" version="1.1" xmlns="http://www.w3.org/2000/svg" xmlns:xlink="http://www.w3.org/1999/xlink" xml:space="preserve" xmlns:serif="http://www.serif.com/" style="fill-rule:evenodd;clip-rule:evenodd;stroke-linecap:square;stroke-linejoin:bevel;">
    <g transform="matrix(1,0,0,1,713.93,-385.045)">
        <path d="M702.834,472.545L750.748,472.545" style="fill:none;fill-rule:nonzero;stroke:black;stroke-width:4px;"/>
    </g>
    <g transform="matrix(1,0,0,1,714.134,-385.045)">
        <path d="M459.716,472.545L507.63,472.545" style="fill:none;fill-rule:nonzero;stroke:black;stroke-width:4px;"/>
    </g>
    <g transform="matrix(1,0,0,1,-456.888,-322.545)">
        <path d="M2376.61,455.35L2376.61,347.545" style="fill:none;fill-rule:nonzero;stroke:black;stroke-width:3.25px;stroke-linecap:round;"/>
    </g>
    <g transform="matrix(1,0,0,1,-456.888,-322.545)">
        <path d="M2437.39,417.85L2437.39,347.545" style="fill:none;fill-rule:nonzero;stroke:black;stroke-width:3.25px;stroke-linecap:round;"/>
    </g>
    <g transform="matrix(1,0,0,1,-456.888,-322.545)">
        <path d="M2498.16,455.35L2498.16,347.545" style="fill:none;fill-rule:nonzero;stroke:black;stroke-width:3.25px;stroke-linecap:round;"/>
    </g>
    <g transform="matrix(1,0,0,1,-456.888,-322.545)">
        <path d="M2133.49,455.35L2133.49,347.545" style="fill:none;fill-rule:nonzero;stroke:black;stroke-width:3.25px;stroke-linecap:round;"/>
    </g>
    <g transform="matrix(1,0,0,1,-456.888,-322.545)">
        <path d="M2194.27,417.85L2194.27,347.545" style="fill:none;fill-rule:nonzero;stroke:black;stroke-width:3.25px;stroke-linecap:round;"/>
    </g>
    <g transform="matrix(1,0,0,1,-456.888,-322.545)">
        <path d="M2255.05,455.35L2255.05,347.545" style="fill:none;fill-rule:nonzero;stroke:black;stroke-width:3.25px;stroke-linecap:round;"/>
    </g>
    <g transform="matrix(1,0,0,1,-456.888,-322.545)">
        <path d="M2315.83,480.35L2315.83,347.545" style="fill:none;fill-rule:nonzero;stroke:black;stroke-width:3.25px;stroke-linecap:round;"/>
    </g>
    <g transform="matrix(1,0,0,1,-456.888,-322.545)">
        <path d="M1973.43,455.35L1973.43,328.795" style="fill:none;fill-rule:nonzero;stroke:black;stroke-width:3.25px;stroke-linecap:round;"/>
    </g>
    <g transform="matrix(1,0,0,1,-456.888,-322.545)">
        <path d="M2072.71,480.35L2072.71,347.545" style="fill:none;fill-rule:nonzero;stroke:black;stroke-width:3.25px;stroke-linecap:round;"/>
    </g>
    <g transform="matrix(1,0,0,1,-456.888,-322.545)">
        <path d="M1791.09,467.85L1791.09,328.795" style="fill:none;fill-rule:nonzero;stroke:black;stroke-width:3.25px;stroke-linecap:round;"/>
    </g>
    <g transform="matrix(1,0,0,1,-456.888,-322.545)">
        <path d="M1851.87,455.35L1851.87,328.795" style="fill:none;fill-rule:nonzero;stroke:black;stroke-width:3.25px;stroke-linecap:round;"/>
    </g>
    <g transform="matrix(1,0,0,1,-456.888,-322.545)">
        <path d="M1912.65,405.35L1912.65,328.795" style="fill:none;fill-rule:nonzero;stroke:black;stroke-width:3.25px;stroke-linecap:round;"/>
    </g>
    <g transform="matrix(1,0,0,1,-456.888,-322.545)">
        <path d="M1608.75,455.35L1608.75,328.795" style="fill:none;fill-rule:nonzero;stroke:black;stroke-width:3.25px;stroke-linecap:round;"/>
    </g>
    <g transform="matrix(1,0,0,1,-456.888,-322.545)">
        <path d="M1669.53,405.35L1669.53,328.795" style="fill:none;fill-rule:nonzero;stroke:black;stroke-width:3.25px;stroke-linecap:round;"/>
    </g>
    <g transform="matrix(1,0,0,1,-456.888,-322.545)">
        <path d="M1730.31,455.35L1730.31,328.795" style="fill:none;fill-rule:nonzero;stroke:black;stroke-width:3.25px;stroke-linecap:round;"/>
    </g>
    <g transform="matrix(1,0,0,1,-456.888,-322.545)">
        <path d="M1387.92,430.35L1387.92,353.795" style="fill:none;fill-rule:nonzero;stroke:black;stroke-width:3.25px;stroke-linecap:round;"/>
    </g>
    <g transform="matrix(1,0,0,1,-456.888,-322.545)">
        <path d="M1448.7,455.35L1448.7,353.795" style="fill:none;fill-rule:nonzero;stroke:black;stroke-width:3.25px;stroke-linecap:round;"/>
    </g>
    <g transform="matrix(1,0,0,1,-456.888,-322.545)">
        <path d="M1547.97,467.85L1547.97,328.795" style="fill:none;fill-rule:nonzero;stroke:black;stroke-width:3.25px;stroke-linecap:round;"/>
    </g>
    <g transform="matrix(1,0,0,1,-456.888,-322.545)">
        <path d="M1205.58,455.35L1205.58,353.795" style="fill:none;fill-rule:nonzero;stroke:black;stroke-width:3.25px;stroke-linecap:round;"/>
    </g>
    <g transform="matrix(1,0,0,1,-456.888,-322.545)">
        <path d="M1266.36,467.85L1266.36,353.795" style="fill:none;fill-rule:nonzero;stroke:black;stroke-width:3.25px;stroke-linecap:round;"/>
    </g>
    <g transform="matrix(1,0,0,1,-456.888,-322.545)">
        <path d="M1327.14,455.35L1327.14,353.795" style="fill:none;fill-rule:nonzero;stroke:black;stroke-width:3.25px;stroke-linecap:round;"/>
    </g>
    <g transform="matrix(1,0,0,1,-456.888,-322.545)">
        <path d="M1023.24,467.85L1023.24,353.795" style="fill:none;fill-rule:nonzero;stroke:black;stroke-width:3.25px;stroke-linecap:round;"/>
    </g>
    <g transform="matrix(1,0,0,1,-456.888,-322.545)">
        <path d="M1084.02,455.35L1084.02,353.795" style="fill:none;fill-rule:nonzero;stroke:black;stroke-width:3.25px;stroke-linecap:round;"/>
    </g>
    <g transform="matrix(1,0,0,1,-456.888,-322.545)">
        <path d="M1144.8,430.35L1144.8,353.795" style="fill:none;fill-rule:nonzero;stroke:black;stroke-width:3.25px;stroke-linecap:round;"/>
    </g>
    <g transform="matrix(1,0,0,1,-456.888,-322.545)">
        <path d="M863.181,417.85L863.181,347.545" style="fill:none;fill-rule:nonzero;stroke:black;stroke-width:3.25px;stroke-linecap:round;"/>
    </g>
    <g transform="matrix(1,0,0,1,-456.888,-322.545)">
        <path d="M923.961,455.35L923.961,347.545" style="fill:none;fill-rule:nonzero;stroke:black;stroke-width:3.25px;stroke-linecap:round;"/>
    </g>
    <g transform="matrix(1,0,0,1,-456.888,-322.545)">
        <path d="M680.843,455.35L680.843,347.545" style="fill:none;fill-rule:nonzero;stroke:black;stroke-width:3.25px;stroke-linecap:round;"/>
    </g>
    <g transform="matrix(1,0,0,1,-456.888,-322.545)">
        <path d="M741.623,480.35L741.623,347.545" style="fill:none;fill-rule:nonzero;stroke:black;stroke-width:3.25px;stroke-linecap:round;"/>
    </g>
    <g transform="matrix(1,0,0,1,-456.888,-322.545)">
        <path d="M802.402,455.35L802.402,347.545" style="fill:none;fill-rule:nonzero;stroke:black;stroke-width:3.25px;stroke-linecap:round;"/>
    </g>
    <g transform="matrix(1,0,0,1,-456.888,-322.545)">
        <path d="M498.505,480.35L498.505,347.545" style="fill:none;fill-rule:nonzero;stroke:black;stroke-width:3.25px;stroke-linecap:round;"/>
    </g>
    <g transform="matrix(1,0,0,1,-456.888,-322.545)">
        <path d="M559.285,455.35L559.285,347.545" style="fill:none;fill-rule:nonzero;stroke:black;stroke-width:3.25px;stroke-linecap:round;"/>
    </g>
    <g transform="matrix(1,0,0,1,-456.888,-322.545)">
        <path d="M620.064,417.85L620.064,347.545" style="fill:none;fill-rule:nonzero;stroke:black;stroke-width:3.25px;stroke-linecap:round;"/>
    </g>
    <g transform="matrix(1,0,0,1,-456.888,-322.545)">
        <path d="M2367.29,446.276C2370.41,446.276 2373.05,447.089 2375.2,448.717C2377.22,450.475 2378.23,452.688 2378.23,455.358C2378.23,459.85 2375.92,464.049 2371.29,467.955C2366.61,471.862 2361.59,473.815 2356.25,473.815C2353.13,473.815 2350.49,473.001 2348.34,471.373C2346.33,469.615 2345.32,467.402 2345.32,464.733C2345.32,460.24 2347.66,456.041 2352.35,452.135C2356.91,448.229 2361.89,446.276 2367.29,446.276" style="fill-rule:nonzero;"/>
    </g>
    <g transform="matrix(1,0,0,1,-456.888,-322.545)">
        <path d="M2428.07,408.776C2431.19,408.776 2433.83,409.589 2435.98,411.217C2438,412.975 2439.01,415.188 2439.01,417.858C2439.01,422.35 2436.7,426.549 2432.07,430.455C2427.39,434.362 2422.37,436.315 2417.03,436.315C2413.91,436.315 2411.27,435.501 2409.12,433.873C2407.11,432.115 2406.1,429.902 2406.1,427.233C2406.1,422.74 2408.44,418.541 2413.13,414.635C2417.69,410.729 2422.67,408.776 2428.07,408.776" style="fill-rule:nonzero;"/>
    </g>
    <g transform="matrix(1,0,0,1,-456.888,-322.545)">
        <path d="M2488.85,446.276C2491.97,446.276 2494.61,447.089 2496.76,448.717C2498.78,450.475 2499.79,452.688 2499.79,455.358C2499.79,459.85 2497.47,464.049 2492.85,467.955C2488.16,471.862 2483.15,473.815 2477.81,473.815C2474.69,473.815 2472.05,473.001 2469.9,471.373C2467.88,469.615 2466.88,467.402 2466.88,464.733C2466.88,460.24 2469.22,456.041 2473.91,452.135C2478.46,448.229 2483.44,446.276 2488.85,446.276" style="fill-rule:nonzero;"/>
    </g>
    <g transform="matrix(1,0,0,1,-456.888,-322.545)">
        <path d="M2184.95,408.776C2188.08,408.776 2190.71,409.589 2192.86,411.217C2194.88,412.975 2195.89,415.188 2195.89,417.858C2195.89,422.35 2193.58,426.549 2188.96,430.455C2184.27,434.362 2179.26,436.315 2173.92,436.315C2170.79,436.315 2168.15,435.501 2166.01,433.873C2163.99,432.115 2162.98,429.902 2162.98,427.233C2162.98,422.74 2165.32,418.541 2170.01,414.635C2174.57,410.729 2179.55,408.776 2184.95,408.776" style="fill-rule:nonzero;"/>
    </g>
    <g transform="matrix(1,0,0,1,-456.888,-322.545)">
        <path d="M2245.73,446.276C2248.86,446.276 2251.49,447.089 2253.64,448.717C2255.66,450.475 2256.67,452.688 2256.67,455.358C2256.67,459.85 2254.36,464.049 2249.74,467.955C2245.05,471.862 2240.03,473.815 2234.7,473.815C2231.57,473.815 2228.93,473.001 2226.79,471.373C2224.77,469.615 2223.76,467.402 2223.76,464.733C2223.76,460.24 2226.1,456.041 2230.79,452.135C2235.35,448.229 2240.33,446.276 2245.73,446.276" style="fill-rule:nonzero;"/>
    </g>
    <g transform="matrix(1,0,0,1,-456.888,-322.545)">
        <path d="M2306.51,471.276C2309.64,471.276 2312.27,472.089 2314.42,473.717C2316.44,475.475 2317.45,477.688 2317.45,480.358C2317.45,484.85 2315.14,489.049 2310.51,492.955C2305.83,496.862 2300.81,498.815 2295.48,498.815C2292.35,498.815 2289.71,498.001 2287.57,496.373C2285.55,494.615 2284.54,492.402 2284.54,489.733C2284.54,485.24 2286.88,481.041 2291.57,477.135C2296.13,473.229 2301.11,471.276 2306.51,471.276" style="fill-rule:nonzero;"/>
    </g>
    <g transform="matrix(1,0,0,1,-456.888,-322.545)">
        <path d="M2063.39,471.276C2066.52,471.276 2069.15,472.089 2071.3,473.717C2073.32,475.475 2074.33,477.688 2074.33,480.358C2074.33,484.85 2072.02,489.049 2067.4,492.955C2062.71,496.862 2057.7,498.815 2052.36,498.815C2049.23,498.815 2046.6,498.001 2044.45,496.373C2042.43,494.615 2041.42,492.402 2041.42,489.733C2041.42,485.24 2043.76,481.041 2048.45,477.135C2053.01,473.229 2057.99,471.276 2063.39,471.276" style="fill-rule:nonzero;"/>
    </g>
    <g transform="matrix(1,0,0,1,-456.888,-322.545)">
        <path d="M2124.17,446.276C2127.3,446.276 2129.93,447.089 2132.08,448.717C2134.1,450.475 2135.11,452.688 2135.11,455.358C2135.11,459.85 2132.8,464.049 2128.18,467.955C2123.49,471.862 2118.48,473.815 2113.14,473.815C2110.01,473.815 2107.38,473.001 2105.23,471.373C2103.21,469.615 2102.2,467.402 2102.2,464.733C2102.2,460.24 2104.54,456.041 2109.23,452.135C2113.79,448.229 2118.77,446.276 2124.17,446.276" style="fill-rule:nonzero;"/>
    </g>
    <g transform="matrix(1,0,0,1,-456.888,-322.545)">
        <path d="M1781.78,458.776C1784.9,458.776 1787.54,459.589 1789.69,461.217C1791.7,462.975 1792.71,465.188 1792.71,467.858C1792.71,472.35 1790.4,476.549 1785.78,480.455C1781.09,484.362 1776.08,486.315 1770.74,486.315C1767.62,486.315 1764.98,485.501 1762.83,483.873C1760.81,482.115 1759.8,479.902 1759.8,477.233C1759.8,472.74 1762.15,468.541 1766.83,464.635C1771.39,460.729 1776.37,458.776 1781.78,458.776" style="fill-rule:nonzero;"/>
    </g>
    <g transform="matrix(1,0,0,1,-456.888,-322.545)">
        <path d="M1842.56,446.276C1845.68,446.276 1848.32,447.089 1850.47,448.717C1852.48,450.475 1853.49,452.688 1853.49,455.358C1853.49,459.85 1851.18,464.049 1846.56,467.955C1841.87,471.862 1836.86,473.815 1831.52,473.815C1828.39,473.815 1825.76,473.001 1823.61,471.373C1821.59,469.615 1820.58,467.402 1820.58,464.733C1820.58,460.24 1822.93,456.041 1827.61,452.135C1832.17,448.229 1837.15,446.276 1842.56,446.276" style="fill-rule:nonzero;"/>
    </g>
    <g transform="matrix(1,0,0,1,-456.888,-322.545)">
        <path d="M1903.33,396.276C1906.46,396.276 1909.1,397.089 1911.24,398.717C1913.26,400.475 1914.27,402.688 1914.27,405.358C1914.27,409.85 1911.96,414.049 1907.34,417.955C1902.65,421.862 1897.64,423.815 1892.3,423.815C1889.17,423.815 1886.54,423.001 1884.39,421.373C1882.37,419.615 1881.36,417.402 1881.36,414.733C1881.36,410.24 1883.71,406.041 1888.39,402.135C1892.95,398.229 1897.93,396.276 1903.33,396.276" style="fill-rule:nonzero;"/>
    </g>
    <g transform="matrix(1,0,0,1,-456.888,-322.545)">
        <path d="M1964.11,446.276C1967.24,446.276 1969.88,447.089 1972.02,448.717C1974.04,450.475 1975.05,452.688 1975.05,455.358C1975.05,459.85 1972.74,464.049 1968.12,467.955C1963.43,471.862 1958.42,473.815 1953.08,473.815C1949.95,473.815 1947.32,473.001 1945.17,471.373C1943.15,469.615 1942.14,467.402 1942.14,464.733C1942.14,460.24 1944.48,456.041 1949.17,452.135C1953.73,448.229 1958.71,446.276 1964.11,446.276" style="fill-rule:nonzero;"/>
    </g>
    <g transform="matrix(1,0,0,1,-456.888,-322.545)">
        <path d="M1599.44,446.276C1602.56,446.276 1605.2,447.089 1607.35,448.717C1609.37,450.475 1610.38,452.688 1610.38,455.358C1610.38,459.85 1608.06,464.049 1603.44,467.955C1598.75,471.862 1593.74,473.815 1588.4,473.815C1585.28,473.815 1582.64,473.001 1580.49,471.373C1578.47,469.615 1577.47,467.402 1577.47,464.733C1577.47,460.24 1579.81,456.041 1584.5,452.135C1589.05,448.229 1594.03,446.276 1599.44,446.276" style="fill-rule:nonzero;"/>
    </g>
    <g transform="matrix(1,0,0,1,-456.888,-322.545)">
        <path d="M1660.22,396.276C1663.34,396.276 1665.98,397.089 1668.13,398.717C1670.15,400.475 1671.15,402.688 1671.15,405.358C1671.15,409.85 1668.84,414.049 1664.22,417.955C1659.53,421.862 1654.52,423.815 1649.18,423.815C1646.06,423.815 1643.42,423.001 1641.27,421.373C1639.25,419.615 1638.24,417.402 1638.24,414.733C1638.24,410.24 1640.59,406.041 1645.28,402.135C1649.83,398.229 1654.81,396.276 1660.22,396.276" style="fill-rule:nonzero;"/>
    </g>
    <g transform="matrix(1,0,0,1,-456.888,-322.545)">
        <path d="M1721,446.276C1724.12,446.276 1726.76,447.089 1728.91,448.717C1730.92,450.475 1731.93,452.688 1731.93,455.358C1731.93,459.85 1729.62,464.049 1725,467.955C1720.31,471.862 1715.3,473.815 1709.96,473.815C1706.84,473.815 1704.2,473.001 1702.05,471.373C1700.03,469.615 1699.02,467.402 1699.02,464.733C1699.02,460.24 1701.37,456.041 1706.05,452.135C1710.61,448.229 1715.59,446.276 1721,446.276" style="fill-rule:nonzero;"/>
    </g>
    <g transform="matrix(1,0,0,1,-456.888,-322.545)">
        <path d="M1439.38,446.276C1442.5,446.276 1445.14,447.089 1447.29,448.717C1449.31,450.475 1450.32,452.688 1450.32,455.358C1450.32,459.85 1448.01,464.049 1443.38,467.955C1438.7,471.862 1433.68,473.815 1428.34,473.815C1425.22,473.815 1422.58,473.001 1420.43,471.373C1418.42,469.615 1417.41,467.402 1417.41,464.733C1417.41,460.24 1419.75,456.041 1424.44,452.135C1428.99,448.229 1433.98,446.276 1439.38,446.276" style="fill-rule:nonzero;"/>
    </g>
    <g transform="matrix(1,0,0,1,-456.888,-322.545)">
        <path d="M1538.66,458.776C1541.78,458.776 1544.42,459.589 1546.57,461.217C1548.59,462.975 1549.6,465.188 1549.6,467.858C1549.6,472.35 1547.28,476.549 1542.66,480.455C1537.97,484.362 1532.96,486.315 1527.62,486.315C1524.5,486.315 1521.86,485.501 1519.71,483.873C1517.69,482.115 1516.69,479.902 1516.69,477.233C1516.69,472.74 1519.03,468.541 1523.72,464.635C1528.27,460.729 1533.25,458.776 1538.66,458.776" style="fill-rule:nonzero;"/>
    </g>
    <g transform="matrix(1,0,0,1,-456.888,-322.545)">
        <path d="M1257.04,458.776C1260.17,458.776 1262.8,459.589 1264.95,461.217C1266.97,462.975 1267.98,465.188 1267.98,467.858C1267.98,472.35 1265.67,476.549 1261.04,480.455C1256.36,484.362 1251.34,486.315 1246.01,486.315C1242.88,486.315 1240.24,485.501 1238.1,483.873C1236.08,482.115 1235.07,479.902 1235.07,477.233C1235.07,472.74 1237.41,468.541 1242.1,464.635C1246.66,460.729 1251.64,458.776 1257.04,458.776" style="fill-rule:nonzero;"/>
    </g>
    <g transform="matrix(1,0,0,1,-456.888,-322.545)">
        <path d="M1317.82,446.276C1320.95,446.276 1323.58,447.089 1325.73,448.717C1327.75,450.475 1328.76,452.688 1328.76,455.358C1328.76,459.85 1326.45,464.049 1321.82,467.955C1317.14,471.862 1312.12,473.815 1306.79,473.815C1303.66,473.815 1301.02,473.001 1298.87,471.373C1296.86,469.615 1295.85,467.402 1295.85,464.733C1295.85,460.24 1298.19,456.041 1302.88,452.135C1307.44,448.229 1312.42,446.276 1317.82,446.276" style="fill-rule:nonzero;"/>
    </g>
    <g transform="matrix(1,0,0,1,-456.888,-322.545)">
        <path d="M1378.6,421.276C1381.72,421.276 1384.36,422.089 1386.51,423.717C1388.53,425.475 1389.54,427.688 1389.54,430.358C1389.54,434.85 1387.23,439.049 1382.6,442.955C1377.92,446.862 1372.9,448.815 1367.56,448.815C1364.44,448.815 1361.8,448.001 1359.65,446.373C1357.64,444.615 1356.63,442.402 1356.63,439.733C1356.63,435.24 1358.97,431.041 1363.66,427.135C1368.22,423.229 1373.2,421.276 1378.6,421.276" style="fill-rule:nonzero;"/>
    </g>
    <g transform="matrix(1,0,0,1,-456.888,-322.545)">
        <path d="M1074.7,446.276C1077.83,446.276 1080.46,447.089 1082.61,448.717C1084.63,450.475 1085.64,452.688 1085.64,455.358C1085.64,459.85 1083.33,464.049 1078.71,467.955C1074.02,471.862 1069.01,473.815 1063.67,473.815C1060.54,473.815 1057.91,473.001 1055.76,471.373C1053.74,469.615 1052.73,467.402 1052.73,464.733C1052.73,460.24 1055.07,456.041 1059.76,452.135C1064.32,448.229 1069.3,446.276 1074.7,446.276" style="fill-rule:nonzero;"/>
    </g>
    <g transform="matrix(1,0,0,1,-456.888,-322.545)">
        <path d="M1135.48,421.276C1138.61,421.276 1141.24,422.089 1143.39,423.717C1145.41,425.475 1146.42,427.688 1146.42,430.358C1146.42,434.85 1144.11,439.049 1139.49,442.955C1134.8,446.862 1129.79,448.815 1124.45,448.815C1121.32,448.815 1118.69,448.001 1116.54,446.373C1114.52,444.615 1113.51,442.402 1113.51,439.733C1113.51,435.24 1115.85,431.041 1120.54,427.135C1125.1,423.229 1130.08,421.276 1135.48,421.276" style="fill-rule:nonzero;"/>
    </g>
    <g transform="matrix(1,0,0,1,-456.888,-322.545)">
        <path d="M1196.26,446.276C1199.39,446.276 1202.02,447.089 1204.17,448.717C1206.19,450.475 1207.2,452.688 1207.2,455.358C1207.2,459.85 1204.89,464.049 1200.27,467.955C1195.58,471.862 1190.56,473.815 1185.23,473.815C1182.1,473.815 1179.46,473.001 1177.32,471.373C1175.3,469.615 1174.29,467.402 1174.29,464.733C1174.29,460.24 1176.63,456.041 1181.32,452.135C1185.88,448.229 1190.86,446.276 1196.26,446.276" style="fill-rule:nonzero;"/>
    </g>
    <g transform="matrix(1,0,0,1,-456.888,-322.545)">
        <path d="M853.865,408.776C856.99,408.776 859.627,409.589 861.775,411.217C863.793,412.975 864.802,415.188 864.802,417.858C864.802,422.35 862.491,426.549 857.869,430.455C853.181,434.362 848.168,436.315 842.83,436.315C839.705,436.315 837.068,435.501 834.92,433.873C832.901,432.115 831.892,429.902 831.892,427.233C831.892,422.74 834.236,418.541 838.923,414.635C843.481,410.729 848.461,408.776 853.865,408.776" style="fill-rule:nonzero;"/>
    </g>
    <g transform="matrix(1,0,0,1,-456.888,-322.545)">
        <path d="M914.644,446.276C917.769,446.276 920.406,447.089 922.554,448.717C924.573,450.475 925.582,452.688 925.582,455.358C925.582,459.85 923.271,464.049 918.648,467.955C913.961,471.862 908.948,473.815 903.609,473.815C900.484,473.815 897.847,473.001 895.699,471.373C893.681,469.615 892.672,467.402 892.672,464.733C892.672,460.24 895.015,456.041 899.703,452.135C904.26,448.229 909.241,446.276 914.644,446.276" style="fill-rule:nonzero;"/>
    </g>
    <g transform="matrix(1,0,0,1,-456.888,-322.545)">
        <path d="M1013.92,458.776C1017.05,458.776 1019.69,459.589 1021.83,461.217C1023.85,462.975 1024.86,465.188 1024.86,467.858C1024.86,472.35 1022.55,476.549 1017.93,480.455C1013.24,484.362 1008.23,486.315 1002.89,486.315C999.763,486.315 997.127,485.501 994.978,483.873C992.96,482.115 991.951,479.902 991.951,477.233C991.951,472.74 994.295,468.541 998.982,464.635C1003.54,460.729 1008.52,458.776 1013.92,458.776" style="fill-rule:nonzero;"/>
    </g>
    <g transform="matrix(1,0,0,1,-456.888,-322.545)">
        <path d="M671.527,446.276C674.652,446.276 677.289,447.089 679.437,448.717C681.455,450.475 682.464,452.688 682.464,455.358C682.464,459.85 680.153,464.049 675.531,467.955C670.843,471.862 665.83,473.815 660.492,473.815C657.367,473.815 654.73,473.001 652.582,471.373C650.563,469.615 649.554,467.402 649.554,464.733C649.554,460.24 651.898,456.041 656.585,452.135C661.143,448.229 666.123,446.276 671.527,446.276" style="fill-rule:nonzero;"/>
    </g>
    <g transform="matrix(1,0,0,1,-456.888,-322.545)">
        <path d="M732.306,471.276C735.431,471.276 738.068,472.089 740.216,473.717C742.235,475.475 743.244,477.688 743.244,480.358C743.244,484.85 740.932,489.049 736.31,492.955C731.623,496.862 726.61,498.815 721.271,498.815C718.146,498.815 715.509,498.001 713.361,496.373C711.343,494.615 710.334,492.402 710.334,489.733C710.334,485.24 712.677,481.041 717.365,477.135C721.922,473.229 726.903,471.276 732.306,471.276" style="fill-rule:nonzero;"/>
    </g>
    <g transform="matrix(1,0,0,1,-456.888,-322.545)">
        <path d="M793.086,446.276C796.211,446.276 798.847,447.089 800.996,448.717C803.014,450.475 804.023,452.688 804.023,455.358C804.023,459.85 801.712,464.049 797.089,467.955C792.402,471.862 787.389,473.815 782.05,473.815C778.925,473.815 776.289,473.001 774.14,471.373C772.122,469.615 771.113,467.402 771.113,464.733C771.113,460.24 773.457,456.041 778.144,452.135C782.701,448.229 787.682,446.276 793.086,446.276" style="fill-rule:nonzero;"/>
    </g>
    <g transform="matrix(1,0,0,1,-456.888,-322.545)">
        <path d="M489.189,471.276C492.314,471.276 494.951,472.089 497.099,473.717C499.117,475.475 500.126,477.688 500.126,480.358C500.126,484.85 497.815,489.049 493.193,492.955C488.505,496.862 483.492,498.815 478.154,498.815C475.029,498.815 472.392,498.001 470.244,496.373C468.225,494.615 467.216,492.402 467.216,489.733C467.216,485.24 469.56,481.041 474.247,477.135C478.805,473.229 483.785,471.276 489.189,471.276" style="fill-rule:nonzero;"/>
    </g>
    <g transform="matrix(1,0,0,1,-456.888,-322.545)">
        <path d="M549.968,446.276C553.093,446.276 555.73,447.089 557.878,448.717C559.897,450.475 560.906,452.688 560.906,455.358C560.906,459.85 558.594,464.049 553.972,467.955C549.285,471.862 544.272,473.815 538.933,473.815C535.808,473.815 533.171,473.001 531.023,471.373C529.005,469.615 527.996,467.402 527.996,464.733C527.996,460.24 530.339,456.041 535.027,452.135C539.584,448.229 544.565,446.276 549.968,446.276" style="fill-rule:nonzero;"/>
    </g>
    <g transform="matrix(1,0,0,1,-456.888,-322.545)">
        <path d="M610.748,408.776C613.873,408.776 616.509,409.589 618.658,411.217C620.676,412.975 621.685,415.188 621.685,417.858C621.685,422.35 619.374,426.549 614.751,430.455C610.064,434.362 605.051,436.315 599.712,436.315C596.587,436.315 593.951,435.501 591.802,433.873C589.784,432.115 588.775,429.902 588.775,427.233C588.775,422.74 591.119,418.541 595.806,414.635C600.363,410.729 605.344,408.776 610.748,408.776" style="fill-rule:nonzero;"/>
    </g>
    <g transform="matrix(1,0,0,1,-456.888,-322.545)">
        <path d="M2314.2,341.295L2499.79,341.295L2499.79,353.795L2314.2,353.795L2314.2,341.295"/>
    </g>
    <g transform="matrix(1,0,0,1,-456.888,-322.545)">
        <path d="M2314.2,360.045L2499.79,360.045L2499.79,372.545L2314.2,372.545L2314.2,360.045"/>
    </g>
    <g transform="matrix(1,0,0,1,-456.888,-322.545)">
        <path d="M2071.08,341.295L2256.67,341.295L2256.67,353.795L2071.08,353.795L2071.08,341.295"/>
    </g>
    <g transform="matrix(1,0,0,1,-456.888,-322.545)">
        <path d="M2071.08,360.045L2256.67,360.045L2256.67,372.545L2071.08,372.545L2071.08,360.045"/>
    </g>
    <g transform="matrix(1,0,0,1,-456.888,-322.545)">
        <path d="M1789.47,322.545L1975.06,322.545L1975.06,335.045L1789.47,335.045L1789.47,322.545"/>
    </g>
    <g transform="matrix(1,0,0,1,-456.888,-322.545)">
        <path d="M1789.47,341.295L1975.06,341.295L1975.06,353.795L1789.47,353.795L1789.47,341.295"/>
    </g>
    <g transform="matrix(1,0,0,1,-456.888,-322.545)">
        <path d="M1546.35,322.545L1731.94,322.545L1731.94,335.045L1546.35,335.045L1546.35,322.545"/>
    </g>
    <g transform="matrix(1,0,0,1,-456.888,-322.545)">
        <path d="M1546.35,341.295L1731.94,341.295L1731.94,353.795L1546.35,353.795L1546.35,341.295"/>
    </g>
    <g transform="matrix(1,0,0,1,-456.888,-322.545)">
        <path d="M1264.73,347.545L1450.32,347.545L1450.32,360.045L1264.73,360.045L1264.73,347.545"/>
    </g>
    <g transform="matrix(1,0,0,1,-456.888,-322.545)">
        <path d="M1264.73,366.295L1450.32,366.295L1450.32,378.795L1264.73,378.795L1264.73,366.295"/>
    </g>
    <g transform="matrix(1,0,0,1,-456.888,-322.545)">
        <path d="M1021.62,347.545L1207.2,347.545L1207.2,360.045L1021.62,360.045L1021.62,347.545"/>
    </g>
    <g transform="matrix(1,0,0,1,-456.888,-322.545)">
        <path d="M1021.62,366.295L1207.2,366.295L1207.2,378.795L1021.62,378.795L1021.62,366.295"/>
    </g>
    <g transform="matrix(1,0,0,1,-456.888,-322.545)">
        <path d="M739.998,341.295L925.586,341.295L925.586,353.795L739.998,353.795L739.998,341.295"/>
    </g>
    <g transform="matrix(1,0,0,1,-456.888,-322.545)">
        <path d="M739.998,360.045L925.586,360.045L925.586,372.545L739.998,372.545L739.998,360.045"/>
    </g>
    <g transform="matrix(1,0,0,1,-456.888,-322.545)">
        <path d="M496.88,341.295L682.468,341.295L682.468,353.795L496.88,353.795L496.88,341.295"/>
    </g>
    <g transform="matrix(1,0,0,1,-456.888,-322.545)">
        <path d="M496.88,360.045L682.468,360.045L682.468,372.545L496.88,372.545L496.88,360.045"/>
    </g>
</svg>
