<?xml version="1.0" encoding="UTF-8" standalone="no"?>
<!DOCTYPE svg PUBLIC "-//W3C//DTD SVG 1.1//EN" "http://www.w3.org/Graphics/SVG/1.1/DTD/svg11.dtd">
<svg width="100%" height="100%" viewBox="0 0 2585 782" version="1.1" xmlns="http://www.w3.org/2000/svg" xmlns:xlink="http://www.w3.org/1999/xlink" xml:space="preserve" xmlns:serif="http://www.serif.com/" style="fill-rule:evenodd;clip-rule:evenodd;stroke-linejoin:bevel;">
    <path d="M2529.66,609.045L2529.66,711.045" style="fill:none;fill-rule:nonzero;stroke:black;stroke-width:4px;"/>
    <path d="M2543.66,609.045L2543.66,711.045" style="fill:none;fill-rule:nonzero;stroke:black;stroke-width:4px;"/>
    <path d="M2004.92,609.045L2004.92,711.045" style="fill:none;fill-rule:nonzero;stroke:black;stroke-width:4px;"/>
    <path d="M1480.19,609.045L1480.19,711.045" style="fill:none;fill-rule:nonzero;stroke:black;stroke-width:4px;"/>
    <path d="M955.451,609.045L955.451,711.045" style="fill:none;fill-rule:nonzero;stroke:black;stroke-width:4px;"/>
    <path d="M430.716,609.045L430.716,711.045" style="fill:none;fill-rule:nonzero;stroke:black;stroke-width:4px;"/>
    <path d="M65.123,609.045L65.123,711.045" style="fill:none;fill-rule:nonzero;stroke:black;stroke-width:4px;"/>
    <path d="M2529.66,346.545L2529.66,610.045" style="fill:none;fill-rule:nonzero;stroke:black;stroke-width:4px;"/>
    <path d="M2543.66,346.545L2543.66,610.045" style="fill:none;fill-rule:nonzero;stroke:black;stroke-width:4px;"/>
    <path d="M2004.92,346.545L2004.92,610.045" style="fill:none;fill-rule:nonzero;stroke:black;stroke-width:4px;"/>
    <path d="M1480.19,346.545L1480.19,610.045" style="fill:none;fill-rule:nonzero;stroke:black;stroke-width:4px;"/>
    <path d="M955.451,346.545L955.451,610.045" style="fill:none;fill-rule:nonzero;stroke:black;stroke-width:4px;"/>
    <path d="M430.716,346.545L430.716,610.045" style="fill:none;fill-rule:nonzero;stroke:black;stroke-width:4px;"/>
    <path d="M65.123,346.545L65.123,610.045" style="fill:none;fill-rule:nonzero;stroke:black;stroke-width:4px;"/>
    <path d="M2529.66,84.045L2529.66,186.045" style="fill:none;fill-rule:nonzero;stroke:black;stroke-width:4px;"/>
    <path d="M2543.66,84.045L2543.66,186.045" style="fill:none;fill-rule:nonzero;stroke:black;stroke-width:4px;"/>
    <path d="M2004.92,84.045L2004.92,186.045" style="fill:none;fill-rule:nonzero;stroke:black;stroke-width:4px;"/>
    <path d="M1480.19,84.045L1480.19,186.045" style="fill:none;fill-rule:nonzero;stroke:black;stroke-width:4px;"/>
    <path d="M955.451,84.045L955.451,186.045" style="fill:none;fill-rule:nonzero;stroke:black;stroke-width:4px;"/>
    <path d="M430.716,84.045L430.716,186.045" style="fill:none;fill-rule:nonzero;stroke:black;stroke-width:4px;"/>
    <path d="M65.123,84.045L65.123,347.545" style="fill:none;fill-rule:nonzero;stroke:black;stroke-width:4px;"/>
    <path d="M2006.92,610.045L2545.66,610.045" style="fill:none;fill-rule:nonzero;stroke:black;stroke-width:2px;"/>
    <path d="M2006.92,635.045L2545.66,635.045" style="fill:none;fill-rule:nonzero;stroke:black;stroke-width:2px;"/>
    <path d="M2006.92,660.045L2545.66,660.045" style="fill:none;fill-rule:nonzero;stroke:black;stroke-width:2px;"/>
    <path d="M2006.92,685.045L2545.66,685.045" style="fill:none;fill-rule:nonzero;stroke:black;stroke-width:2px;"/>
    <path d="M2006.92,710.045L2545.66,710.045" style="fill:none;fill-rule:nonzero;stroke:black;stroke-width:2px;"/>
    <path d="M1482.19,610.045L2006.92,610.045" style="fill:none;fill-rule:nonzero;stroke:black;stroke-width:2px;"/>
    <path d="M1482.19,635.045L2006.92,635.045" style="fill:none;fill-rule:nonzero;stroke:black;stroke-width:2px;"/>
    <path d="M1482.19,660.045L2006.92,660.045" style="fill:none;fill-rule:nonzero;stroke:black;stroke-width:2px;"/>
    <path d="M1482.19,685.045L2006.92,685.045" style="fill:none;fill-rule:nonzero;stroke:black;stroke-width:2px;"/>
    <path d="M1482.19,710.045L2006.92,710.045" style="fill:none;fill-rule:nonzero;stroke:black;stroke-width:2px;"/>
    <path d="M957.451,610.045L1482.19,610.045" style="fill:none;fill-rule:nonzero;stroke:black;stroke-width:2px;"/>
    <path d="M957.451,635.045L1482.19,635.045" style="fill:none;fill-rule:nonzero;stroke:black;stroke-width:2px;"/>
    <path d="M957.451,660.045L1482.19,660.045" style="fill:none;fill-rule:nonzero;stroke:black;stroke-width:2px;"/>
    <path d="M957.451,685.045L1482.19,685.045" style="fill:none;fill-rule:nonzero;stroke:black;stroke-width:2px;"/>
    <path d="M957.451,710.045L1482.19,710.045" style="fill:none;fill-rule:nonzero;stroke:black;stroke-width:2px;"/>
    <path d="M432.716,610.045L957.451,610.045" style="fill:none;fill-rule:nonzero;stroke:black;stroke-width:2px;"/>
    <path d="M432.716,635.045L957.451,635.045" style="fill:none;fill-rule:nonzero;stroke:black;stroke-width:2px;"/>
    <path d="M432.716,660.045L957.451,660.045" style="fill:none;fill-rule:nonzero;stroke:black;stroke-width:2px;"/>
    <path d="M432.716,685.045L957.451,685.045" style="fill:none;fill-rule:nonzero;stroke:black;stroke-width:2px;"/>
    <path d="M432.716,710.045L957.451,710.045" style="fill:none;fill-rule:nonzero;stroke:black;stroke-width:2px;"/>
    <path d="M63.123,610.045L432.716,610.045" style="fill:none;fill-rule:nonzero;stroke:black;stroke-width:2px;"/>
    <path d="M63.123,635.045L432.716,635.045" style="fill:none;fill-rule:nonzero;stroke:black;stroke-width:2px;"/>
    <path d="M63.123,660.045L432.716,660.045" style="fill:none;fill-rule:nonzero;stroke:black;stroke-width:2px;"/>
    <path d="M63.123,685.045L432.716,685.045" style="fill:none;fill-rule:nonzero;stroke:black;stroke-width:2px;"/>
    <path d="M63.123,710.045L432.716,710.045" style="fill:none;fill-rule:nonzero;stroke:black;stroke-width:2px;"/>
    <path d="M2006.92,347.545L2545.66,347.545" style="fill:none;fill-rule:nonzero;stroke:black;stroke-width:2px;"/>
    <path d="M2006.92,372.545L2545.66,372.545" style="fill:none;fill-rule:nonzero;stroke:black;stroke-width:2px;"/>
    <path d="M2006.92,397.545L2545.66,397.545" style="fill:none;fill-rule:nonzero;stroke:black;stroke-width:2px;"/>
    <path d="M2006.92,422.545L2545.66,422.545" style="fill:none;fill-rule:nonzero;stroke:black;stroke-width:2px;"/>
    <path d="M2006.92,447.545L2545.66,447.545" style="fill:none;fill-rule:nonzero;stroke:black;stroke-width:2px;"/>
    <path d="M1482.19,347.545L2006.92,347.545" style="fill:none;fill-rule:nonzero;stroke:black;stroke-width:2px;"/>
    <path d="M1482.19,372.545L2006.92,372.545" style="fill:none;fill-rule:nonzero;stroke:black;stroke-width:2px;"/>
    <path d="M1482.19,397.545L2006.92,397.545" style="fill:none;fill-rule:nonzero;stroke:black;stroke-width:2px;"/>
    <path d="M1482.19,422.545L2006.92,422.545" style="fill:none;fill-rule:nonzero;stroke:black;stroke-width:2px;"/>
    <path d="M1482.19,447.545L2006.92,447.545" style="fill:none;fill-rule:nonzero;stroke:black;stroke-width:2px;"/>
    <path d="M957.451,347.545L1482.19,347.545" style="fill:none;fill-rule:nonzero;stroke:black;stroke-width:2px;"/>
    <path d="M957.451,372.545L1482.19,372.545" style="fill:none;fill-rule:nonzero;stroke:black;stroke-width:2px;"/>
    <path d="M957.451,397.545L1482.19,397.545" style="fill:none;fill-rule:nonzero;stroke:black;stroke-width:2px;"/>
    <path d="M957.451,422.545L1482.19,422.545" style="fill:none;fill-rule:nonzero;stroke:black;stroke-width:2px;"/>
    <path d="M957.451,447.545L1482.19,447.545" style="fill:none;fill-rule:nonzero;stroke:black;stroke-width:2px;"/>
    <path d="M432.716,347.545L957.451,347.545" style="fill:none;fill-rule:nonzero;stroke:black;stroke-width:2px;"/>
    <path d="M432.716,372.545L957.451,372.545" style="fill:none;fill-rule:nonzero;stroke:black;stroke-width:2px;"/>
    <path d="M432.716,397.545L957.451,397.545" style="fill:none;fill-rule:nonzero;stroke:black;stroke-width:2px;"/>
    <path d="M432.716,422.545L957.451,422.545" style="fill:none;fill-rule:nonzero;stroke:black;stroke-width:2px;"/>
    <path d="M432.716,447.545L957.451,447.545" style="fill:none;fill-rule:nonzero;stroke:black;stroke-width:2px;"/>
    <path d="M63.123,347.545L432.716,347.545" style="fill:none;fill-rule:nonzero;stroke:black;stroke-width:2px;"/>
    <path d="M63.123,372.545L432.716,372.545" style="fill:none;fill-rule:nonzero;stroke:black;stroke-width:2px;"/>
    <path d="M63.123,397.545L432.716,397.545" style="fill:none;fill-rule:nonzero;stroke:black;stroke-width:2px;"/>
    <path d="M63.123,422.545L432.716,422.545" style="fill:none;fill-rule:nonzero;stroke:black;stroke-width:2px;"/>
    <path d="M63.123,447.545L432.716,447.545" style="fill:none;fill-rule:nonzero;stroke:black;stroke-width:2px;"/>
    <path d="M2006.92,85.045L2545.66,85.045" style="fill:none;fill-rule:nonzero;stroke:black;stroke-width:2px;"/>
    <path d="M2006.92,110.045L2545.66,110.045" style="fill:none;fill-rule:nonzero;stroke:black;stroke-width:2px;"/>
    <path d="M2006.92,135.045L2545.66,135.045" style="fill:none;fill-rule:nonzero;stroke:black;stroke-width:2px;"/>
    <path d="M2006.92,160.045L2545.66,160.045" style="fill:none;fill-rule:nonzero;stroke:black;stroke-width:2px;"/>
    <path d="M2006.92,185.045L2545.66,185.045" style="fill:none;fill-rule:nonzero;stroke:black;stroke-width:2px;"/>
    <path d="M1482.19,85.045L2006.92,85.045" style="fill:none;fill-rule:nonzero;stroke:black;stroke-width:2px;"/>
    <path d="M1482.19,110.045L2006.92,110.045" style="fill:none;fill-rule:nonzero;stroke:black;stroke-width:2px;"/>
    <path d="M1482.19,135.045L2006.92,135.045" style="fill:none;fill-rule:nonzero;stroke:black;stroke-width:2px;"/>
    <path d="M1482.19,160.045L2006.92,160.045" style="fill:none;fill-rule:nonzero;stroke:black;stroke-width:2px;"/>
    <path d="M1482.19,185.045L2006.92,185.045" style="fill:none;fill-rule:nonzero;stroke:black;stroke-width:2px;"/>
    <path d="M957.451,85.045L1482.19,85.045" style="fill:none;fill-rule:nonzero;stroke:black;stroke-width:2px;"/>
    <path d="M957.451,110.045L1482.19,110.045" style="fill:none;fill-rule:nonzero;stroke:black;stroke-width:2px;"/>
    <path d="M957.451,135.045L1482.19,135.045" style="fill:none;fill-rule:nonzero;stroke:black;stroke-width:2px;"/>
    <path d="M957.451,160.045L1482.19,160.045" style="fill:none;fill-rule:nonzero;stroke:black;stroke-width:2px;"/>
    <path d="M957.451,185.045L1482.19,185.045" style="fill:none;fill-rule:nonzero;stroke:black;stroke-width:2px;"/>
    <path d="M432.716,85.045L957.451,85.045" style="fill:none;fill-rule:nonzero;stroke:black;stroke-width:2px;"/>
    <path d="M432.716,110.045L957.451,110.045" style="fill:none;fill-rule:nonzero;stroke:black;stroke-width:2px;"/>
    <path d="M432.716,135.045L957.451,135.045" style="fill:none;fill-rule:nonzero;stroke:black;stroke-width:2px;"/>
    <path d="M432.716,160.045L957.451,160.045" style="fill:none;fill-rule:nonzero;stroke:black;stroke-width:2px;"/>
    <path d="M432.716,185.045L957.451,185.045" style="fill:none;fill-rule:nonzero;stroke:black;stroke-width:2px;"/>
    <path d="M63.123,85.045L432.716,85.045" style="fill:none;fill-rule:nonzero;stroke:black;stroke-width:2px;"/>
    <path d="M63.123,110.045L432.716,110.045" style="fill:none;fill-rule:nonzero;stroke:black;stroke-width:2px;"/>
    <path d="M63.123,135.045L432.716,135.045" style="fill:none;fill-rule:nonzero;stroke:black;stroke-width:2px;"/>
    <path d="M63.123,160.045L432.716,160.045" style="fill:none;fill-rule:nonzero;stroke:black;stroke-width:2px;"/>
    <path d="M63.123,185.045L432.716,185.045" style="fill:none;fill-rule:nonzero;stroke:black;stroke-width:2px;"/>
    <path d="M2073.61,706.205L2073.61,553.795" style="fill:none;fill-rule:nonzero;stroke:black;stroke-width:3.25px;stroke-linecap:round;"/>
    <path d="M1548.88,718.705L1548.88,563.17" style="fill:none;fill-rule:nonzero;stroke:black;stroke-width:3.25px;stroke-linecap:round;"/>
    <path d="M992.674,613.965L992.674,766.295" style="fill:none;fill-rule:nonzero;stroke:black;stroke-width:3.25px;stroke-linecap:round;"/>
    <path d="M499.408,706.205L499.408,553.795" style="fill:none;fill-rule:nonzero;stroke:black;stroke-width:3.25px;stroke-linecap:round;"/>
    <path d="M2072.06,703.502C2072.06,702.396 2071.64,701.452 2070.79,700.67C2069.95,699.824 2068.97,699.401 2067.86,699.401C2065.91,699.401 2061.97,701.354 2056.05,705.26C2049.93,709.231 2046.18,712.064 2044.81,713.756C2044.1,714.668 2043.74,715.612 2043.74,716.588C2043.74,717.695 2044.16,718.639 2045.01,719.42C2045.79,720.267 2046.77,720.69 2047.94,720.69C2049.83,720.69 2053.8,718.737 2059.85,714.83C2065.84,710.924 2069.55,708.092 2070.99,706.334C2071.7,705.488 2072.06,704.544 2072.06,703.502M2066.89,696.276C2072.48,696.276 2075.28,698.685 2075.28,703.502C2075.28,705.846 2074.6,708.58 2073.23,711.705C2071.87,714.765 2070.04,717.109 2067.76,718.737C2062.75,722.122 2056.47,723.815 2048.92,723.815C2043.32,723.815 2040.52,721.406 2040.52,716.588C2040.52,714.44 2041.2,711.738 2042.57,708.483C2043.87,705.358 2045.69,702.981 2048.04,701.354C2053.05,697.968 2059.33,696.276 2066.89,696.276" style="fill-rule:nonzero;"/>
    <path d="M2072.06,616.002C2072.06,614.895 2071.64,613.951 2070.79,613.17C2069.95,612.324 2068.97,611.901 2067.86,611.901C2065.91,611.901 2061.97,613.854 2056.05,617.76C2049.93,621.731 2046.18,624.563 2044.81,626.256C2044.1,627.168 2043.74,628.112 2043.74,629.088C2043.74,630.195 2044.16,631.139 2045.01,631.92C2045.79,632.767 2046.77,633.19 2047.94,633.19C2049.83,633.19 2053.8,631.237 2059.85,627.33C2065.84,623.424 2069.55,620.592 2070.99,618.834C2071.7,617.988 2072.06,617.044 2072.06,616.002M2066.89,608.776C2072.48,608.776 2075.28,611.185 2075.28,616.002C2075.28,618.346 2074.6,621.08 2073.23,624.205C2071.87,627.265 2070.04,629.609 2067.76,631.237C2062.75,634.622 2056.47,636.315 2048.92,636.315C2043.32,636.315 2040.52,633.906 2040.52,629.088C2040.52,626.94 2041.2,624.238 2042.57,620.983C2043.87,617.858 2045.69,615.481 2048.04,613.854C2053.05,610.468 2059.33,608.776 2066.89,608.776" style="fill-rule:nonzero;"/>
    <path d="M1547.33,716.002C1547.33,714.896 1546.9,713.952 1546.06,713.17C1545.21,712.324 1544.23,711.901 1543.13,711.901C1541.17,711.901 1537.24,713.854 1531.31,717.76C1525.19,721.731 1521.45,724.564 1520.08,726.256C1519.36,727.168 1519.01,728.112 1519.01,729.088C1519.01,730.195 1519.43,731.139 1520.28,731.92C1521.06,732.767 1522.03,733.19 1523.21,733.19C1525.09,733.19 1529.06,731.237 1535.12,727.33C1541.11,723.424 1544.82,720.592 1546.25,718.834C1546.97,717.988 1547.33,717.044 1547.33,716.002M1542.15,708.776C1547.75,708.776 1550.55,711.185 1550.55,716.002C1550.55,718.346 1549.87,721.08 1548.5,724.205C1547.13,727.265 1545.31,729.609 1543.03,731.237C1538.02,734.622 1531.73,736.315 1524.18,736.315C1518.58,736.315 1515.78,733.906 1515.78,729.088C1515.78,726.94 1516.47,724.238 1517.83,720.983C1519.14,717.858 1520.96,715.481 1523.3,713.854C1528.32,710.468 1534.6,708.776 1542.15,708.776" style="fill-rule:nonzero;"/>
    <path d="M1547.33,628.502C1547.33,627.396 1546.9,626.451 1546.06,625.67C1545.21,624.824 1544.23,624.401 1543.13,624.401C1541.17,624.401 1537.24,626.354 1531.31,630.26C1525.19,634.231 1521.45,637.063 1520.08,638.756C1519.36,639.668 1519.01,640.612 1519.01,641.588C1519.01,642.695 1519.43,643.639 1520.28,644.42C1521.06,645.267 1522.03,645.69 1523.21,645.69C1525.09,645.69 1529.06,643.737 1535.12,639.83C1541.11,635.924 1544.82,633.092 1546.25,631.334C1546.97,630.488 1547.33,629.544 1547.33,628.502M1542.15,621.276C1547.75,621.276 1550.55,623.685 1550.55,628.502C1550.55,630.846 1549.87,633.58 1548.5,636.705C1547.13,639.765 1545.31,642.109 1543.03,643.737C1538.02,647.122 1531.73,648.815 1524.18,648.815C1518.58,648.815 1515.78,646.406 1515.78,641.588C1515.78,639.44 1516.47,636.738 1517.83,633.483C1519.14,630.358 1520.96,627.981 1523.3,626.354C1528.32,622.968 1534.6,621.276 1542.15,621.276" style="fill-rule:nonzero;"/>
    <path d="M1022.59,691.002C1022.59,689.896 1022.17,688.952 1021.32,688.17C1020.48,687.324 1019.5,686.901 1018.39,686.901C1016.44,686.901 1012.5,688.854 1006.58,692.76C1000.46,696.731 996.713,699.564 995.345,701.256C994.629,702.168 994.271,703.112 994.271,704.088C994.271,705.195 994.694,706.139 995.541,706.92C996.322,707.767 997.299,708.19 998.47,708.19C1000.36,708.19 1004.33,706.237 1010.38,702.33C1016.37,698.424 1020.09,695.592 1021.52,693.834C1022.23,692.988 1022.59,692.044 1022.59,691.002M1017.42,683.776C1023.01,683.776 1025.81,686.185 1025.81,691.002C1025.81,693.346 1025.13,696.08 1023.76,699.205C1022.4,702.265 1020.57,704.609 1018.29,706.237C1013.28,709.622 1007,711.315 999.447,711.315C993.848,711.315 991.049,708.906 991.049,704.088C991.049,701.94 991.732,699.238 993.099,695.983C994.401,692.858 996.224,690.481 998.568,688.854C1003.58,685.468 1009.86,683.776 1017.42,683.776" style="fill-rule:nonzero;"/>
    <path d="M1022.59,603.502C1022.59,602.395 1022.17,601.451 1021.32,600.67C1020.48,599.824 1019.5,599.401 1018.39,599.401C1016.44,599.401 1012.5,601.354 1006.58,605.26C1000.46,609.231 996.713,612.063 995.345,613.756C994.629,614.668 994.271,615.612 994.271,616.588C994.271,617.695 994.694,618.639 995.541,619.42C996.322,620.267 997.299,620.69 998.47,620.69C1000.36,620.69 1004.33,618.737 1010.38,614.83C1016.37,610.924 1020.09,608.092 1021.52,606.334C1022.23,605.488 1022.59,604.544 1022.59,603.502M1017.42,596.276C1023.01,596.276 1025.81,598.685 1025.81,603.502C1025.81,605.846 1025.13,608.58 1023.76,611.705C1022.4,614.765 1020.57,617.109 1018.29,618.737C1013.28,622.122 1007,623.815 999.447,623.815C993.848,623.815 991.049,621.406 991.049,616.588C991.049,614.44 991.732,611.738 993.099,608.483C994.401,605.358 996.224,602.981 998.568,601.354C1003.58,597.968 1009.86,596.276 1017.42,596.276" style="fill-rule:nonzero;"/>
    <path d="M497.857,703.502C497.857,702.396 497.434,701.452 496.587,700.67C495.741,699.824 494.764,699.401 493.658,699.401C491.704,699.401 487.766,701.354 481.841,705.26C475.721,709.231 471.978,712.064 470.611,713.756C469.895,714.668 469.536,715.612 469.536,716.588C469.536,717.695 469.96,718.639 470.806,719.42C471.587,720.267 472.564,720.69 473.736,720.69C475.624,720.69 479.595,718.737 485.65,714.83C491.639,710.924 495.35,708.092 496.783,706.334C497.499,705.488 497.857,704.544 497.857,703.502M492.681,696.276C498.28,696.276 501.079,698.685 501.079,703.502C501.079,705.846 500.396,708.58 499.029,711.705C497.661,714.765 495.839,717.109 493.56,718.737C488.547,722.122 482.264,723.815 474.712,723.815C469.113,723.815 466.314,721.406 466.314,716.588C466.314,714.44 466.997,711.738 468.365,708.483C469.667,705.358 471.49,702.981 473.833,701.354C478.846,697.968 485.129,696.276 492.681,696.276" style="fill-rule:nonzero;"/>
    <path d="M497.857,616.002C497.857,614.895 497.434,613.951 496.587,613.17C495.741,612.324 494.764,611.901 493.658,611.901C491.704,611.901 487.766,613.854 481.841,617.76C475.721,621.731 471.978,624.563 470.611,626.256C469.895,627.168 469.536,628.112 469.536,629.088C469.536,630.195 469.96,631.139 470.806,631.92C471.587,632.767 472.564,633.19 473.736,633.19C475.624,633.19 479.595,631.237 485.65,627.33C491.639,623.424 495.35,620.592 496.783,618.834C497.499,617.988 497.857,617.044 497.857,616.002M492.681,608.776C498.28,608.776 501.079,611.185 501.079,616.002C501.079,618.346 500.396,621.08 499.029,624.205C497.661,627.265 495.839,629.609 493.56,631.237C488.547,634.622 482.264,636.315 474.712,636.315C469.113,636.315 466.314,633.906 466.314,629.088C466.314,626.94 466.997,624.238 468.365,620.983C469.667,617.858 471.49,615.481 473.833,613.854C478.846,610.468 485.129,608.776 492.681,608.776" style="fill-rule:nonzero;"/>
    <path d="M145.525,626.159C144.549,625.182 144.06,623.978 144.06,622.545C144.06,621.113 144.549,619.909 145.525,618.932C146.502,617.955 147.706,617.467 149.139,617.467C150.571,617.467 151.775,617.955 152.752,618.932C153.728,619.909 154.217,621.113 154.217,622.545C154.217,623.978 153.728,625.182 152.752,626.159C151.775,627.135 150.571,627.623 149.139,627.623C147.706,627.623 146.502,627.135 145.525,626.159M145.525,651.159C144.549,650.182 144.06,648.978 144.06,647.545C144.06,646.113 144.549,644.909 145.525,643.932C146.502,642.955 147.706,642.467 149.139,642.467C150.571,642.467 151.775,642.955 152.752,643.932C153.728,644.909 154.217,646.113 154.217,647.545C154.217,648.978 153.728,650.182 152.752,651.159C151.775,652.135 150.571,652.623 149.139,652.623C147.706,652.623 146.502,652.135 145.525,651.159M111.639,608.776C120.297,608.776 127.394,610.957 132.928,615.319C138.266,619.876 140.935,626.061 140.935,633.873C140.935,639.147 139.894,643.965 137.81,648.326C135.857,652.884 133.286,656.92 130.096,660.436C126.84,664.017 122.902,667.402 118.279,670.592C113.787,673.717 109.165,676.517 104.412,678.991C94.712,683.873 89.373,686.315 88.396,686.315C87.55,686.315 87.127,685.892 87.127,685.045C87.127,684.72 87.257,684.427 87.518,684.166C90.838,682.213 94.907,679.707 99.725,676.647C102.85,674.629 106.495,671.829 110.662,668.248C114.698,664.863 117.823,661.673 120.037,658.678C122.316,655.748 124.399,652.103 126.287,647.741C127.915,643.379 128.728,639.082 128.728,634.85C128.728,628.535 127.166,623.034 124.041,618.346C120.916,613.659 116.782,611.315 111.639,611.315C107.993,611.315 104.868,612.487 102.264,614.83C99.464,617.239 97.446,620.267 96.209,623.912C97.446,623.392 98.585,623.131 99.627,623.131C102.361,623.131 104.705,624.108 106.658,626.061C108.611,628.144 109.588,630.521 109.588,633.19C109.588,635.989 108.644,638.496 106.756,640.709C104.738,642.728 102.361,643.737 99.627,643.737C96.697,643.737 94.06,642.728 91.717,640.709C89.503,638.496 88.396,635.989 88.396,633.19C88.396,626.484 90.675,620.755 95.232,616.002C99.725,611.185 105.193,608.776 111.639,608.776" style="fill-rule:nonzero;"/>
    <path d="M125.115,396.959L125.701,396.959C125.961,396.894 126.189,396.862 126.385,396.862C133.676,396.862 139.666,399.433 144.353,404.576C149.041,409.654 151.385,415.579 151.385,422.35C151.385,430.748 147.902,437.584 140.935,442.858C139.113,444.29 136.736,445.462 133.807,446.373C134.132,450.605 134.295,454.023 134.295,456.627C134.295,457.148 134.23,459.036 134.1,462.291C133.839,468.346 131.756,473.587 127.85,478.014C124.073,482.376 119.386,484.557 113.787,484.557C108.514,484.557 104.021,482.701 100.31,478.99C96.6,475.214 94.744,470.657 94.744,465.319C94.744,462.519 95.818,460.143 97.967,458.19C100.18,456.237 102.752,455.26 105.682,455.26C108.286,455.26 110.467,456.269 112.225,458.287C114.047,460.175 114.959,462.519 114.959,465.319C114.959,467.858 114.047,470.039 112.225,471.862C110.402,473.684 108.221,474.596 105.682,474.596C104.64,474.596 103.631,474.401 102.654,474.01C105.519,478.242 109.327,480.358 114.08,480.358C118.572,480.358 122.251,478.535 125.115,474.889C128.11,471.113 129.738,466.718 129.998,461.705C130.128,458.58 130.193,456.79 130.193,456.334C130.193,452.688 130.063,449.694 129.803,447.35C126.547,447.871 123.65,448.131 121.111,448.131C112.062,448.131 104.347,444.55 97.967,437.389C91.717,430.162 88.592,421.569 88.592,411.608C88.592,409.524 88.787,407.408 89.178,405.26C89.568,403.502 90.057,401.582 90.643,399.498C90.968,398.326 91.847,396.438 93.279,393.834C93.8,393.053 94.386,392.076 95.037,390.904C95.688,389.733 96.144,388.951 96.404,388.561C97.055,387.259 98.325,385.501 100.213,383.287C100.734,382.701 101.271,382.05 101.824,381.334C102.377,380.618 102.85,380.032 103.24,379.576C103.631,379.121 103.924,378.763 104.119,378.502C104.314,378.242 105.779,376.516 108.514,373.326C109.165,372.675 109.799,371.975 110.418,371.227C111.036,370.478 111.541,369.892 111.932,369.469C112.322,369.046 112.615,368.737 112.81,368.541C110.467,360.794 109.002,354.609 108.416,349.987C107.96,346.276 107.732,341.197 107.732,334.752C107.732,329.088 109.034,323.782 111.639,318.834C114.178,313.691 117.726,309.492 122.283,306.237C122.544,306.041 122.869,305.944 123.26,305.944C123.715,305.944 124.041,306.041 124.236,306.237C127.752,310.468 130.779,315.97 133.318,322.74C135.922,329.511 137.225,335.664 137.225,341.197C137.225,347.447 135.727,353.307 132.732,358.776C129.347,364.57 124.985,370.559 119.646,376.744C121.014,381.041 122.836,387.779 125.115,396.959M133.416,442.369C136.801,441.132 139.438,439.016 141.326,436.022C143.409,433.157 144.451,429.934 144.451,426.354C144.451,421.731 142.889,417.63 139.764,414.049C136.573,410.338 132.504,408.255 127.557,407.799C130.356,421.536 132.309,433.059 133.416,442.369M95.623,419.811C95.623,426.256 98.227,431.92 103.435,436.803C108.774,441.556 114.764,443.932 121.404,443.932C124.139,443.932 126.808,443.737 129.412,443.346C128.37,433.45 126.32,421.601 123.26,407.799C119.549,408.19 116.586,409.492 114.373,411.705C112.225,413.984 111.15,416.556 111.15,419.42C111.15,424.368 113.787,428.372 119.06,431.432C119.516,431.888 119.744,432.376 119.744,432.897C119.744,433.418 119.516,433.906 119.06,434.362C118.67,434.817 118.182,435.045 117.596,435.045C117.53,435.045 117.238,434.98 116.717,434.85C113.006,432.832 110.141,430.227 108.123,427.037C106.235,423.652 105.291,420.234 105.291,416.783C105.291,412.291 106.691,408.222 109.49,404.576C112.42,400.931 116.228,398.587 120.916,397.545C119.093,390.253 117.596,384.557 116.424,380.455C115.382,381.627 114.129,383.043 112.664,384.703C111.199,386.363 110.336,387.356 110.076,387.682C107.732,390.742 105.942,393.118 104.705,394.811C102.491,397.871 100.864,400.507 99.822,402.721C98.715,405.195 97.739,407.897 96.893,410.826C96.046,413.626 95.623,416.621 95.623,419.811M128.24,320.494C123.357,322.903 119.516,326.354 116.717,330.846C113.852,335.468 112.42,340.449 112.42,345.787C112.42,350.475 113.592,356.79 115.935,364.733C120.623,359.069 124.139,353.828 126.482,349.01C128.956,343.932 130.193,338.626 130.193,333.092C130.193,328.925 129.542,324.726 128.24,320.494" style="fill-rule:nonzero;"/>
    <path d="M125.115,134.459L125.701,134.459C125.961,134.394 126.189,134.361 126.385,134.361C133.676,134.361 139.666,136.933 144.353,142.076C149.041,147.154 151.385,153.079 151.385,159.85C151.385,168.248 147.902,175.084 140.935,180.357C139.113,181.79 136.736,182.962 133.807,183.873C134.132,188.105 134.295,191.523 134.295,194.127C134.295,194.648 134.23,196.536 134.1,199.791C133.839,205.846 131.756,211.087 127.85,215.514C124.073,219.876 119.386,222.057 113.787,222.057C108.514,222.057 104.021,220.201 100.31,216.49C96.6,212.714 94.744,208.157 94.744,202.818C94.744,200.019 95.818,197.643 97.967,195.689C100.18,193.736 102.752,192.76 105.682,192.76C108.286,192.76 110.467,193.769 112.225,195.787C114.047,197.675 114.959,200.019 114.959,202.818C114.959,205.357 114.047,207.538 112.225,209.361C110.402,211.184 108.221,212.096 105.682,212.096C104.64,212.096 103.631,211.9 102.654,211.51C105.519,215.742 109.327,217.857 114.08,217.857C118.572,217.857 122.251,216.035 125.115,212.389C128.11,208.613 129.738,204.218 129.998,199.205C130.128,196.08 130.193,194.29 130.193,193.834C130.193,190.188 130.063,187.193 129.803,184.85C126.547,185.37 123.65,185.631 121.111,185.631C112.062,185.631 104.347,182.05 97.967,174.889C91.717,167.662 88.592,159.068 88.592,149.107C88.592,147.024 88.787,144.908 89.178,142.76C89.568,141.002 90.057,139.081 90.643,136.998C90.968,135.826 91.847,133.938 93.279,131.334C93.8,130.553 94.386,129.576 95.037,128.404C95.688,127.232 96.144,126.451 96.404,126.061C97.055,124.758 98.325,123.001 100.213,120.787C100.734,120.201 101.271,119.55 101.824,118.834C102.377,118.118 102.85,117.532 103.24,117.076C103.631,116.62 103.924,116.262 104.119,116.002C104.314,115.742 105.779,114.016 108.514,110.826C109.165,110.175 109.799,109.475 110.418,108.727C111.036,107.978 111.541,107.392 111.932,106.969C112.322,106.546 112.615,106.236 112.81,106.041C110.467,98.294 109.002,92.109 108.416,87.486C107.96,83.775 107.732,78.697 107.732,72.252C107.732,66.588 109.034,61.282 111.639,56.334C114.178,51.191 117.726,46.992 122.283,43.736C122.544,43.541 122.869,43.443 123.26,43.443C123.715,43.443 124.041,43.541 124.236,43.736C127.752,47.968 130.779,53.469 133.318,60.24C135.922,67.011 137.225,73.163 137.225,78.697C137.225,84.947 135.727,90.807 132.732,96.275C129.347,102.07 124.985,108.059 119.646,114.244C121.014,118.541 122.836,125.279 125.115,134.459M133.416,179.869C136.801,178.632 139.438,176.516 141.326,173.522C143.409,170.657 144.451,167.434 144.451,163.854C144.451,159.231 142.889,155.13 139.764,151.549C136.573,147.838 132.504,145.755 127.557,145.299C130.356,159.036 132.309,170.559 133.416,179.869M95.623,157.311C95.623,163.756 98.227,169.42 103.435,174.303C108.774,179.055 114.764,181.432 121.404,181.432C124.139,181.432 126.808,181.236 129.412,180.846C128.37,170.95 126.32,159.101 123.26,145.299C119.549,145.689 116.586,146.992 114.373,149.205C112.225,151.484 111.15,154.055 111.15,156.92C111.15,161.868 113.787,165.872 119.06,168.932C119.516,169.387 119.744,169.876 119.744,170.397C119.744,170.917 119.516,171.406 119.06,171.861C118.67,172.317 118.182,172.545 117.596,172.545C117.53,172.545 117.238,172.48 116.717,172.35C113.006,170.331 110.141,167.727 108.123,164.537C106.235,161.152 105.291,157.734 105.291,154.283C105.291,149.791 106.691,145.722 109.49,142.076C112.42,138.43 116.228,136.087 120.916,135.045C119.093,127.753 117.596,122.057 116.424,117.955C115.382,119.127 114.129,120.543 112.664,122.203C111.199,123.863 110.336,124.856 110.076,125.182C107.732,128.242 105.942,130.618 104.705,132.311C102.491,135.37 100.864,138.007 99.822,140.221C98.715,142.695 97.739,145.397 96.893,148.326C96.046,151.126 95.623,154.12 95.623,157.311M128.24,57.994C123.357,60.403 119.516,63.853 116.717,68.346C113.852,72.968 112.42,77.949 112.42,83.287C112.42,87.975 113.592,94.29 115.935,102.232C120.623,96.568 124.139,91.328 126.482,86.51C128.956,81.432 130.193,76.126 130.193,70.592C130.193,66.425 129.542,62.226 128.24,57.994" style="fill-rule:nonzero;"/>
    <path d="M200.635,666.198C200.635,667.435 200.016,668.053 198.779,668.053C197.542,668.053 196.924,667.435 196.924,666.198L196.924,651.744L188.623,654.869L188.623,670.69C188.623,671.927 188.005,672.545 186.768,672.545C185.531,672.545 184.912,671.927 184.912,670.69L184.912,656.139L181.787,657.311C181.722,657.376 181.462,657.409 181.006,657.409C180.485,657.409 180.029,657.213 179.639,656.823C179.248,656.432 179.053,655.976 179.053,655.455L179.053,649.401C179.053,648.424 179.476,647.806 180.322,647.545L184.912,645.983L184.912,629.967L181.787,631.041C181.722,631.106 181.462,631.139 181.006,631.139C180.485,631.139 180.029,630.944 179.639,630.553C179.248,630.162 179.053,629.707 179.053,629.186L179.053,623.131C179.053,622.22 179.476,621.634 180.322,621.373L184.912,619.616L184.912,603.893C184.912,602.656 185.531,602.037 186.768,602.037C188.005,602.037 188.623,602.656 188.623,603.893L188.623,618.346L196.924,615.221L196.924,599.401C196.924,598.164 197.542,597.545 198.779,597.545C200.016,597.545 200.635,598.164 200.635,599.401L200.635,613.951L203.857,612.78C203.922,612.715 204.15,612.682 204.541,612.682C204.997,612.682 205.485,612.877 206.006,613.268C206.396,613.659 206.592,614.114 206.592,614.635L206.592,620.69C206.592,621.601 206.136,622.22 205.225,622.545L200.635,624.108L200.635,640.123L203.857,639.049C203.922,638.984 204.15,638.951 204.541,638.951C204.997,638.951 205.485,639.147 206.006,639.537C206.396,639.928 206.592,640.384 206.592,640.905L206.592,646.959C206.592,647.806 206.136,648.392 205.225,648.717L200.635,650.475L200.635,666.198M196.924,625.573L188.623,628.502L188.623,644.518L196.924,641.588L196.924,625.573" style="fill-rule:nonzero;"/>
    <path d="M200.635,378.697C200.635,379.934 200.016,380.553 198.779,380.553C197.542,380.553 196.924,379.934 196.924,378.697L196.924,364.244L188.623,367.369L188.623,383.19C188.623,384.427 188.005,385.045 186.768,385.045C185.531,385.045 184.912,384.427 184.912,383.19L184.912,368.639L181.787,369.811C181.722,369.876 181.462,369.908 181.006,369.908C180.485,369.908 180.029,369.713 179.639,369.322C179.248,368.932 179.053,368.476 179.053,367.955L179.053,361.901C179.053,360.924 179.476,360.305 180.322,360.045L184.912,358.483L184.912,342.467L181.787,343.541C181.722,343.606 181.462,343.639 181.006,343.639C180.485,343.639 180.029,343.443 179.639,343.053C179.248,342.662 179.053,342.207 179.053,341.686L179.053,335.631C179.053,334.72 179.476,334.134 180.322,333.873L184.912,332.115L184.912,316.393C184.912,315.156 185.531,314.537 186.768,314.537C188.005,314.537 188.623,315.156 188.623,316.393L188.623,330.846L196.924,327.721L196.924,311.901C196.924,310.664 197.542,310.045 198.779,310.045C200.016,310.045 200.635,310.664 200.635,311.901L200.635,326.451L203.857,325.279C203.922,325.214 204.15,325.182 204.541,325.182C204.997,325.182 205.485,325.377 206.006,325.768C206.396,326.158 206.592,326.614 206.592,327.135L206.592,333.19C206.592,334.101 206.136,334.72 205.225,335.045L200.635,336.608L200.635,352.623L203.857,351.549C203.922,351.484 204.15,351.451 204.541,351.451C204.997,351.451 205.485,351.647 206.006,352.037C206.396,352.428 206.592,352.884 206.592,353.404L206.592,359.459C206.592,360.305 206.136,360.891 205.225,361.217L200.635,362.975L200.635,378.697M196.924,338.072L188.623,341.002L188.623,357.018L196.924,354.088L196.924,338.072" style="fill-rule:nonzero;"/>
    <path d="M200.635,116.197C200.635,117.434 200.016,118.053 198.779,118.053C197.542,118.053 196.924,117.434 196.924,116.197L196.924,101.744L188.623,104.869L188.623,120.689C188.623,121.926 188.005,122.545 186.768,122.545C185.531,122.545 184.912,121.926 184.912,120.689L184.912,106.139L181.787,107.311C181.722,107.376 181.462,107.408 181.006,107.408C180.485,107.408 180.029,107.213 179.639,106.822C179.248,106.432 179.053,105.976 179.053,105.455L179.053,99.4C179.053,98.424 179.476,97.805 180.322,97.545L184.912,95.982L184.912,79.967L181.787,81.041C181.722,81.106 181.462,81.139 181.006,81.139C180.485,81.139 180.029,80.943 179.639,80.553C179.248,80.162 179.053,79.706 179.053,79.186L179.053,73.131C179.053,72.219 179.476,71.633 180.322,71.373L184.912,69.615L184.912,53.893C184.912,52.656 185.531,52.037 186.768,52.037C188.005,52.037 188.623,52.656 188.623,53.893L188.623,68.346L196.924,65.221L196.924,49.4C196.924,48.163 197.542,47.545 198.779,47.545C200.016,47.545 200.635,48.163 200.635,49.4L200.635,63.951L203.857,62.779C203.922,62.714 204.15,62.682 204.541,62.682C204.997,62.682 205.485,62.877 206.006,63.268C206.396,63.658 206.592,64.114 206.592,64.635L206.592,70.689C206.592,71.601 206.136,72.219 205.225,72.545L200.635,74.107L200.635,90.123L203.857,89.049C203.922,88.984 204.15,88.951 204.541,88.951C204.997,88.951 205.485,89.147 206.006,89.537C206.396,89.928 206.592,90.383 206.592,90.904L206.592,96.959C206.592,97.805 206.136,98.391 205.225,98.717L200.635,100.475L200.635,116.197M196.924,75.572L188.623,78.502L188.623,94.518L196.924,91.588L196.924,75.572" style="fill-rule:nonzero;"/>
    <path d="M256.568,660.045C254.615,660.045 252.857,659.687 251.295,658.971C249.732,658.255 248.626,657.506 247.975,656.725C247.128,655.748 246.282,655 245.436,654.479C244.394,653.763 243.32,653.405 242.213,653.405C240.52,653.405 239.12,653.925 238.014,654.967C236.842,655.944 236.191,657.278 236.061,658.971C235.93,659.687 235.54,660.045 234.889,660.045C234.107,660.045 233.717,659.687 233.717,658.971C233.717,656.432 234.303,654.153 235.475,652.135C236.646,650.052 238.079,648.326 239.771,646.959C241.204,645.722 243.092,644.225 245.436,642.467C245.826,642.142 246.656,641.458 247.926,640.416C249.195,639.375 250.253,638.496 251.1,637.78C252.792,636.347 254.257,634.459 255.494,632.116C256.666,629.772 257.252,627.233 257.252,624.498C257.252,621.178 256.699,618.313 255.592,615.905C254.42,613.561 252.63,612.389 250.221,612.389C248.723,612.389 247.519,612.715 246.607,613.366C245.631,614.017 245.143,614.896 245.143,616.002C245.143,616.914 245.729,618.053 246.9,619.42C248.072,620.787 248.658,621.927 248.658,622.838C248.658,624.791 247.975,626.451 246.607,627.819C245.305,629.121 243.71,629.772 241.822,629.772C239.869,629.772 238.209,629.088 236.842,627.721C235.54,626.289 234.889,624.661 234.889,622.838C234.889,619.127 236.386,616.067 239.381,613.659C242.376,611.25 245.989,610.045 250.221,610.045C255.234,610.045 259.596,611.412 263.307,614.147C267.018,616.751 268.873,620.201 268.873,624.498C268.873,627.428 268.352,629.935 267.311,632.018C266.334,634.231 264.869,635.957 262.916,637.194C260.702,638.626 258.782,639.733 257.154,640.514C254.876,641.556 252.597,642.532 250.318,643.444C247.584,644.55 245.468,645.592 243.971,646.569C244.817,646.373 245.696,646.276 246.607,646.276C249.602,646.276 252.727,647.252 255.982,649.205C259.303,651.159 261.874,652.135 263.697,652.135C264.804,652.135 265.683,651.94 266.334,651.549C266.985,651.159 267.408,650.735 267.604,650.28C267.864,649.629 268.092,649.173 268.287,648.912C268.548,648.522 268.873,648.326 269.264,648.326C270.045,648.326 270.436,648.717 270.436,649.498C270.436,651.321 269.133,653.535 266.529,656.139C263.99,658.743 260.67,660.045 256.568,660.045" style="fill-rule:nonzero;"/>
    <path d="M254.381,661.401C256.334,661.401 257.994,661.173 259.361,660.717C260.728,660.261 261.607,660.034 261.998,660.034C262.454,660.034 262.812,660.164 263.072,660.424C263.268,660.619 263.398,660.847 263.463,661.108C263.463,661.238 263.398,661.433 263.268,661.694L234.85,694.702L251.549,694.702L251.549,681.616C251.549,680.769 251.777,680.053 252.232,679.467C253.014,678.816 253.665,678.425 254.186,678.295C255.032,677.905 256.074,676.993 257.311,675.561C258.352,674.389 259.589,672.338 261.021,669.409C261.217,669.018 261.51,668.823 261.9,668.823C262.682,668.823 263.137,669.278 263.268,670.19L263.268,694.702L270.396,694.702C271.308,694.702 271.829,695.19 271.959,696.166C271.959,697.143 271.438,697.631 270.396,697.631L263.268,697.631L263.268,698.412C263.268,701.017 263.919,703.23 265.221,705.053C266.718,706.876 268.476,707.787 270.494,707.787C271.275,707.787 271.666,708.178 271.666,708.959C271.666,709.741 271.275,710.131 270.494,710.131C269.127,710.131 266.913,709.936 263.853,709.545C261.054,709.09 258.873,708.862 257.311,708.862C255.683,708.862 253.502,709.09 250.768,709.545C247.838,709.936 245.657,710.131 244.225,710.131C243.443,710.131 243.053,709.741 243.053,708.959C243.053,708.178 243.443,707.787 244.225,707.787C246.243,707.787 248.001,706.876 249.498,705.053C250.865,703.165 251.549,700.952 251.549,698.412L251.549,697.631L234.85,697.631C233.743,697.631 232.962,697.371 232.506,696.85C231.985,696.459 231.725,695.939 231.725,695.287C231.725,695.092 232.213,694.409 233.189,693.237C234.296,691.935 235.468,690.34 236.705,688.452C238.137,686.238 239.505,683.959 240.807,681.616C242.239,678.946 243.378,675.886 244.225,672.436C245.201,668.92 245.689,665.34 245.689,661.694C245.689,660.652 246.145,660.131 247.057,660.131C247.252,660.131 247.675,660.229 248.326,660.424C248.521,660.489 248.928,660.587 249.547,660.717C250.165,660.847 250.67,660.978 251.061,661.108C252.232,661.303 253.339,661.401 254.381,661.401" style="fill-rule:nonzero;"/>
    <path d="M256.568,397.545C254.615,397.545 252.857,397.187 251.295,396.471C249.732,395.755 248.626,395.006 247.975,394.225C247.128,393.248 246.282,392.5 245.436,391.979C244.394,391.263 243.32,390.904 242.213,390.904C240.52,390.904 239.12,391.425 238.014,392.467C236.842,393.444 236.191,394.778 236.061,396.471C235.93,397.187 235.54,397.545 234.889,397.545C234.107,397.545 233.717,397.187 233.717,396.471C233.717,393.932 234.303,391.653 235.475,389.635C236.646,387.552 238.079,385.826 239.771,384.459C241.204,383.222 243.092,381.725 245.436,379.967C245.826,379.641 246.656,378.958 247.926,377.916C249.195,376.875 250.253,375.996 251.1,375.279C252.792,373.847 254.257,371.959 255.494,369.615C256.666,367.272 257.252,364.733 257.252,361.998C257.252,358.678 256.699,355.813 255.592,353.404C254.42,351.061 252.63,349.889 250.221,349.889C248.723,349.889 247.519,350.214 246.607,350.865C245.631,351.516 245.143,352.395 245.143,353.502C245.143,354.414 245.729,355.553 246.9,356.92C248.072,358.287 248.658,359.427 248.658,360.338C248.658,362.291 247.975,363.951 246.607,365.319C245.305,366.621 243.71,367.272 241.822,367.272C239.869,367.272 238.209,366.588 236.842,365.221C235.54,363.789 234.889,362.161 234.889,360.338C234.889,356.627 236.386,353.567 239.381,351.158C242.376,348.75 245.989,347.545 250.221,347.545C255.234,347.545 259.596,348.912 263.307,351.647C267.018,354.251 268.873,357.701 268.873,361.998C268.873,364.928 268.352,367.434 267.311,369.518C266.334,371.731 264.869,373.457 262.916,374.694C260.702,376.126 258.782,377.233 257.154,378.014C254.876,379.055 252.597,380.032 250.318,380.944C247.584,382.05 245.468,383.092 243.971,384.069C244.817,383.873 245.696,383.776 246.607,383.776C249.602,383.776 252.727,384.752 255.982,386.705C259.303,388.658 261.874,389.635 263.697,389.635C264.804,389.635 265.683,389.44 266.334,389.049C266.985,388.658 267.408,388.235 267.604,387.779C267.864,387.128 268.092,386.673 268.287,386.412C268.548,386.022 268.873,385.826 269.264,385.826C270.045,385.826 270.436,386.217 270.436,386.998C270.436,388.821 269.133,391.035 266.529,393.639C263.99,396.243 260.67,397.545 256.568,397.545" style="fill-rule:nonzero;"/>
    <path d="M254.381,398.901C256.334,398.901 257.994,398.673 259.361,398.217C260.728,397.761 261.607,397.533 261.998,397.533C262.454,397.533 262.812,397.664 263.072,397.924C263.268,398.119 263.398,398.347 263.463,398.608C263.463,398.738 263.398,398.933 263.268,399.194L234.85,432.201L251.549,432.201L251.549,419.115C251.549,418.269 251.777,417.553 252.232,416.967C253.014,416.316 253.665,415.925 254.186,415.795C255.032,415.404 256.074,414.493 257.311,413.061C258.352,411.889 259.589,409.838 261.021,406.908C261.217,406.518 261.51,406.322 261.9,406.322C262.682,406.322 263.137,406.778 263.268,407.69L263.268,432.201L270.396,432.201C271.308,432.201 271.829,432.69 271.959,433.666C271.959,434.643 271.438,435.131 270.396,435.131L263.268,435.131L263.268,435.912C263.268,438.516 263.919,440.73 265.221,442.553C266.718,444.376 268.476,445.287 270.494,445.287C271.275,445.287 271.666,445.678 271.666,446.459C271.666,447.24 271.275,447.631 270.494,447.631C269.127,447.631 266.913,447.436 263.853,447.045C261.054,446.589 258.873,446.362 257.311,446.362C255.683,446.362 253.502,446.589 250.768,447.045C247.838,447.436 245.657,447.631 244.225,447.631C243.443,447.631 243.053,447.24 243.053,446.459C243.053,445.678 243.443,445.287 244.225,445.287C246.243,445.287 248.001,444.376 249.498,442.553C250.865,440.665 251.549,438.451 251.549,435.912L251.549,435.131L234.85,435.131C233.743,435.131 232.962,434.871 232.506,434.35C231.985,433.959 231.725,433.438 231.725,432.787C231.725,432.592 232.213,431.908 233.189,430.737C234.296,429.434 235.468,427.839 236.705,425.951C238.137,423.738 239.505,421.459 240.807,419.115C242.239,416.446 243.378,413.386 244.225,409.936C245.201,406.42 245.689,402.839 245.689,399.194C245.689,398.152 246.145,397.631 247.057,397.631C247.252,397.631 247.675,397.729 248.326,397.924C248.521,397.989 248.928,398.087 249.547,398.217C250.165,398.347 250.67,398.477 251.061,398.608C252.232,398.803 253.339,398.901 254.381,398.901" style="fill-rule:nonzero;"/>
    <path d="M256.568,135.045C254.615,135.045 252.857,134.687 251.295,133.971C249.732,133.255 248.626,132.506 247.975,131.725C247.128,130.748 246.282,129.999 245.436,129.479C244.394,128.762 243.32,128.404 242.213,128.404C240.52,128.404 239.12,128.925 238.014,129.967C236.842,130.943 236.191,132.278 236.061,133.971C235.93,134.687 235.54,135.045 234.889,135.045C234.107,135.045 233.717,134.687 233.717,133.971C233.717,131.432 234.303,129.153 235.475,127.135C236.646,125.051 238.079,123.326 239.771,121.959C241.204,120.722 243.092,119.225 245.436,117.467C245.826,117.141 246.656,116.458 247.926,115.416C249.195,114.374 250.253,113.495 251.1,112.779C252.792,111.347 254.257,109.459 255.494,107.115C256.666,104.771 257.252,102.232 257.252,99.498C257.252,96.178 256.699,93.313 255.592,90.904C254.42,88.561 252.63,87.389 250.221,87.389C248.723,87.389 247.519,87.714 246.607,88.365C245.631,89.016 245.143,89.895 245.143,91.002C245.143,91.913 245.729,93.053 246.9,94.42C248.072,95.787 248.658,96.926 248.658,97.838C248.658,99.791 247.975,101.451 246.607,102.818C245.305,104.12 243.71,104.771 241.822,104.771C239.869,104.771 238.209,104.088 236.842,102.721C235.54,101.288 234.889,99.661 234.889,97.838C234.889,94.127 236.386,91.067 239.381,88.658C242.376,86.249 245.989,85.045 250.221,85.045C255.234,85.045 259.596,86.412 263.307,89.147C267.018,91.751 268.873,95.201 268.873,99.498C268.873,102.428 268.352,104.934 267.311,107.018C266.334,109.231 264.869,110.956 262.916,112.193C260.702,113.626 258.782,114.732 257.154,115.514C254.876,116.555 252.597,117.532 250.318,118.443C247.584,119.55 245.468,120.592 243.971,121.568C244.817,121.373 245.696,121.275 246.607,121.275C249.602,121.275 252.727,122.252 255.982,124.205C259.303,126.158 261.874,127.135 263.697,127.135C264.804,127.135 265.683,126.939 266.334,126.549C266.985,126.158 267.408,125.735 267.604,125.279C267.864,124.628 268.092,124.173 268.287,123.912C268.548,123.521 268.873,123.326 269.264,123.326C270.045,123.326 270.436,123.717 270.436,124.498C270.436,126.321 269.133,128.534 266.529,131.139C263.99,133.743 260.67,135.045 256.568,135.045" style="fill-rule:nonzero;"/>
    <path d="M254.381,136.4C256.334,136.4 257.994,136.173 259.361,135.717C260.728,135.261 261.607,135.033 261.998,135.033C262.454,135.033 262.812,135.163 263.072,135.424C263.268,135.619 263.398,135.847 263.463,136.107C263.463,136.238 263.398,136.433 263.268,136.693L234.85,169.701L251.549,169.701L251.549,156.615C251.549,155.769 251.777,155.053 252.232,154.467C253.014,153.816 253.665,153.425 254.186,153.295C255.032,152.904 256.074,151.993 257.311,150.561C258.352,149.389 259.589,147.338 261.021,144.408C261.217,144.018 261.51,143.822 261.9,143.822C262.682,143.822 263.137,144.278 263.268,145.189L263.268,169.701L270.396,169.701C271.308,169.701 271.829,170.189 271.959,171.166C271.959,172.143 271.438,172.631 270.396,172.631L263.268,172.631L263.268,173.412C263.268,176.016 263.919,178.23 265.221,180.053C266.718,181.876 268.476,182.787 270.494,182.787C271.275,182.787 271.666,183.178 271.666,183.959C271.666,184.74 271.275,185.131 270.494,185.131C269.127,185.131 266.913,184.936 263.853,184.545C261.054,184.089 258.873,183.861 257.311,183.861C255.683,183.861 253.502,184.089 250.768,184.545C247.838,184.936 245.657,185.131 244.225,185.131C243.443,185.131 243.053,184.74 243.053,183.959C243.053,183.178 243.443,182.787 244.225,182.787C246.243,182.787 248.001,181.876 249.498,180.053C250.865,178.165 251.549,175.951 251.549,173.412L251.549,172.631L234.85,172.631C233.743,172.631 232.962,172.37 232.506,171.85C231.985,171.459 231.725,170.938 231.725,170.287C231.725,170.092 232.213,169.408 233.189,168.236C234.296,166.934 235.468,165.339 236.705,163.451C238.137,161.238 239.505,158.959 240.807,156.615C242.239,153.946 243.378,150.886 244.225,147.436C245.201,143.92 245.689,140.339 245.689,136.693C245.689,135.652 246.145,135.131 247.057,135.131C247.252,135.131 247.675,135.229 248.326,135.424C248.521,135.489 248.928,135.587 249.547,135.717C250.165,135.847 250.67,135.977 251.061,136.107C252.232,136.303 253.339,136.4 254.381,136.4" style="fill-rule:nonzero;"/>
    <path d="M329.357,639.537C331.245,639.537 332.678,640.058 333.654,641.1C334.631,642.272 335.152,643.379 335.217,644.42C335.347,645.397 335.673,646.504 336.193,647.741C336.779,648.782 337.528,649.303 338.439,649.303C339.156,649.303 340.23,648.489 341.662,646.862C342.964,645.429 343.908,644.16 344.494,643.053C344.82,642.402 345.275,642.077 345.861,642.077L345.959,642.077C346.61,642.142 347.066,642.467 347.326,643.053L335.022,685.045C334.37,685.696 333.459,686.022 332.287,686.022C331.115,686.022 330.204,685.696 329.553,685.045L341.272,652.428C337.105,653.925 333.589,654.674 330.725,654.674C328.381,654.674 326.363,653.925 324.67,652.428C322.912,650.996 322.033,649.108 322.033,646.764C322.033,644.746 322.749,643.053 324.182,641.686C325.614,640.254 327.339,639.537 329.357,639.537" style="fill-rule:nonzero;"/>
    <path d="M52.666,476.513C52.666,447.309 32.551,418.922 32.551,390.943C32.551,376.851 38.037,363.168 54.952,350.915C55.18,350.762 55.294,350.506 55.294,350.353C55.294,349.894 54.037,349.485 53.123,349.485C52.666,349.485 51.866,349.536 51.294,349.894C29.352,365.619 22.037,383.795 22.037,402.175C22.037,431.788 43.523,460.38 43.523,488.767C43.523,502.859 38.037,516.133 21.123,528.387L21.123,529.204C38.037,541.457 43.523,554.732 43.523,568.823C43.523,597.211 22.037,625.802 22.037,655.415C22.037,673.795 29.352,691.971 51.294,707.697C51.866,708.054 52.666,708.105 53.123,708.105C54.037,708.105 55.294,707.697 55.294,707.237C55.294,707.084 55.18,706.829 54.952,706.676C38.037,694.422 32.551,680.739 32.551,666.647C32.551,638.668 52.666,610.281 52.666,581.077C52.666,562.492 45.352,544.725 23.866,528.795C45.352,512.866 52.666,495.098 52.666,476.513"/>
</svg>
