<?xml version="1.0" encoding="UTF-8" standalone="no"?>
<!DOCTYPE svg PUBLIC "-//W3C//DTD SVG 1.1//EN" "http://www.w3.org/Graphics/SVG/1.1/DTD/svg11.dtd">
<svg width="100%" height="100%" viewBox="0 0 2485 231" version="1.1" xmlns="http://www.w3.org/2000/svg" xmlns:xlink="http://www.w3.org/1999/xlink" xml:space="preserve" xmlns:serif="http://www.serif.com/" style="fill-rule:evenodd;clip-rule:evenodd;stroke-linejoin:bevel;">
    <g transform="matrix(1,0,0,1,-62.1229,-43.4434)">
        <path d="M2529.66,84.045L2529.66,186.045" style="fill:none;fill-rule:nonzero;stroke:black;stroke-width:4px;"/>
    </g>
    <g transform="matrix(1,0,0,1,-62.1229,-43.4434)">
        <path d="M2543.66,84.045L2543.66,186.045" style="fill:none;fill-rule:nonzero;stroke:black;stroke-width:4px;"/>
    </g>
    <g transform="matrix(1,0,0,1,-62.1229,-43.4434)">
        <path d="M2004.92,84.045L2004.92,186.045" style="fill:none;fill-rule:nonzero;stroke:black;stroke-width:4px;"/>
    </g>
    <g transform="matrix(1,0,0,1,-62.1229,-43.4434)">
        <path d="M1480.19,84.045L1480.19,186.045" style="fill:none;fill-rule:nonzero;stroke:black;stroke-width:4px;"/>
    </g>
    <g transform="matrix(1,0,0,1,-62.1229,-43.4434)">
        <path d="M955.451,84.045L955.451,186.045" style="fill:none;fill-rule:nonzero;stroke:black;stroke-width:4px;"/>
    </g>
    <g transform="matrix(1,0,0,1,-62.1229,-43.4434)">
        <path d="M430.716,84.045L430.716,186.045" style="fill:none;fill-rule:nonzero;stroke:black;stroke-width:4px;"/>
    </g>
    <g transform="matrix(1,0,0,1,-62.1229,-43.4434)">
        <path d="M2006.92,85.045L2545.66,85.045" style="fill:none;fill-rule:nonzero;stroke:black;stroke-width:2px;"/>
    </g>
    <g transform="matrix(1,0,0,1,-62.1229,-43.4434)">
        <path d="M2006.92,110.045L2545.66,110.045" style="fill:none;fill-rule:nonzero;stroke:black;stroke-width:2px;"/>
    </g>
    <g transform="matrix(1,0,0,1,-62.1229,-43.4434)">
        <path d="M2006.92,135.045L2545.66,135.045" style="fill:none;fill-rule:nonzero;stroke:black;stroke-width:2px;"/>
    </g>
    <g transform="matrix(1,0,0,1,-62.1229,-43.4434)">
        <path d="M2006.92,160.045L2545.66,160.045" style="fill:none;fill-rule:nonzero;stroke:black;stroke-width:2px;"/>
    </g>
    <g transform="matrix(1,0,0,1,-62.1229,-43.4434)">
        <path d="M2006.92,185.045L2545.66,185.045" style="fill:none;fill-rule:nonzero;stroke:black;stroke-width:2px;"/>
    </g>
    <g transform="matrix(1,0,0,1,-62.1229,-43.4434)">
        <path d="M1482.19,85.045L2006.92,85.045" style="fill:none;fill-rule:nonzero;stroke:black;stroke-width:2px;"/>
    </g>
    <g transform="matrix(1,0,0,1,-62.1229,-43.4434)">
        <path d="M1482.19,110.045L2006.92,110.045" style="fill:none;fill-rule:nonzero;stroke:black;stroke-width:2px;"/>
    </g>
    <g transform="matrix(1,0,0,1,-62.1229,-43.4434)">
        <path d="M1482.19,135.045L2006.92,135.045" style="fill:none;fill-rule:nonzero;stroke:black;stroke-width:2px;"/>
    </g>
    <g transform="matrix(1,0,0,1,-62.1229,-43.4434)">
        <path d="M1482.19,160.045L2006.92,160.045" style="fill:none;fill-rule:nonzero;stroke:black;stroke-width:2px;"/>
    </g>
    <g transform="matrix(1,0,0,1,-62.1229,-43.4434)">
        <path d="M1482.19,185.045L2006.92,185.045" style="fill:none;fill-rule:nonzero;stroke:black;stroke-width:2px;"/>
    </g>
    <g transform="matrix(1,0,0,1,-62.1229,-43.4434)">
        <path d="M957.451,85.045L1482.19,85.045" style="fill:none;fill-rule:nonzero;stroke:black;stroke-width:2px;"/>
    </g>
    <g transform="matrix(1,0,0,1,-62.1229,-43.4434)">
        <path d="M957.451,110.045L1482.19,110.045" style="fill:none;fill-rule:nonzero;stroke:black;stroke-width:2px;"/>
    </g>
    <g transform="matrix(1,0,0,1,-62.1229,-43.4434)">
        <path d="M957.451,135.045L1482.19,135.045" style="fill:none;fill-rule:nonzero;stroke:black;stroke-width:2px;"/>
    </g>
    <g transform="matrix(1,0,0,1,-62.1229,-43.4434)">
        <path d="M957.451,160.045L1482.19,160.045" style="fill:none;fill-rule:nonzero;stroke:black;stroke-width:2px;"/>
    </g>
    <g transform="matrix(1,0,0,1,-62.1229,-43.4434)">
        <path d="M957.451,185.045L1482.19,185.045" style="fill:none;fill-rule:nonzero;stroke:black;stroke-width:2px;"/>
    </g>
    <g transform="matrix(1,0,0,1,-62.1229,-43.4434)">
        <path d="M432.716,85.045L957.451,85.045" style="fill:none;fill-rule:nonzero;stroke:black;stroke-width:2px;"/>
    </g>
    <g transform="matrix(1,0,0,1,-62.1229,-43.4434)">
        <path d="M432.716,110.045L957.451,110.045" style="fill:none;fill-rule:nonzero;stroke:black;stroke-width:2px;"/>
    </g>
    <g transform="matrix(1,0,0,1,-62.1229,-43.4434)">
        <path d="M432.716,135.045L957.451,135.045" style="fill:none;fill-rule:nonzero;stroke:black;stroke-width:2px;"/>
    </g>
    <g transform="matrix(1,0,0,1,-62.1229,-43.4434)">
        <path d="M432.716,160.045L957.451,160.045" style="fill:none;fill-rule:nonzero;stroke:black;stroke-width:2px;"/>
    </g>
    <g transform="matrix(1,0,0,1,-62.1229,-43.4434)">
        <path d="M432.716,185.045L957.451,185.045" style="fill:none;fill-rule:nonzero;stroke:black;stroke-width:2px;"/>
    </g>
    <g transform="matrix(1,0,0,1,-62.1229,-43.4434)">
        <path d="M63.123,85.045L432.716,85.045" style="fill:none;fill-rule:nonzero;stroke:black;stroke-width:2px;"/>
    </g>
    <g transform="matrix(1,0,0,1,-62.1229,-43.4434)">
        <path d="M63.123,110.045L432.716,110.045" style="fill:none;fill-rule:nonzero;stroke:black;stroke-width:2px;"/>
    </g>
    <g transform="matrix(1,0,0,1,-62.1229,-43.4434)">
        <path d="M63.123,135.045L432.716,135.045" style="fill:none;fill-rule:nonzero;stroke:black;stroke-width:2px;"/>
    </g>
    <g transform="matrix(1,0,0,1,-62.1229,-43.4434)">
        <path d="M63.123,160.045L432.716,160.045" style="fill:none;fill-rule:nonzero;stroke:black;stroke-width:2px;"/>
    </g>
    <g transform="matrix(1,0,0,1,-62.1229,-43.4434)">
        <path d="M63.123,185.045L432.716,185.045" style="fill:none;fill-rule:nonzero;stroke:black;stroke-width:2px;"/>
    </g>
    <g transform="matrix(1,0,0,1,-62.1229,-43.4434)">
        <path d="M2225.38,152.24L2225.38,228.795" style="fill:none;fill-rule:nonzero;stroke:black;stroke-width:3.25px;stroke-linecap:round;"/>
    </g>
    <g transform="matrix(1,0,0,1,-62.1229,-43.4434)">
        <path d="M2286.16,139.74L2286.16,222.545" style="fill:none;fill-rule:nonzero;stroke:black;stroke-width:3.25px;stroke-linecap:round;"/>
    </g>
    <g transform="matrix(1,0,0,1,-62.1229,-43.4434)">
        <path d="M2043.05,164.74L2043.05,235.045" style="fill:none;fill-rule:nonzero;stroke:black;stroke-width:3.25px;stroke-linecap:round;"/>
    </g>
    <g transform="matrix(1,0,0,1,-62.1229,-43.4434)">
        <path d="M1761.43,152.24L1761.43,216.295" style="fill:none;fill-rule:nonzero;stroke:black;stroke-width:3.25px;stroke-linecap:round;"/>
    </g>
    <g transform="matrix(1,0,0,1,-62.1229,-43.4434)">
        <path d="M1882.99,152.24L1882.99,216.295" style="fill:none;fill-rule:nonzero;stroke:black;stroke-width:3.25px;stroke-linecap:round;"/>
    </g>
    <g transform="matrix(1,0,0,1,-62.1229,-43.4434)">
        <path d="M1700.65,139.74L1700.65,210.045" style="fill:none;fill-rule:nonzero;stroke:black;stroke-width:3.25px;stroke-linecap:round;"/>
    </g>
    <g transform="matrix(1,0,0,1,-62.1229,-43.4434)">
        <path d="M1518.31,127.24L1518.31,203.795" style="fill:none;fill-rule:nonzero;stroke:black;stroke-width:3.25px;stroke-linecap:round;"/>
    </g>
    <g transform="matrix(1,0,0,1,-62.1229,-43.4434)">
        <path d="M1236.69,152.24L1236.69,235.045" style="fill:none;fill-rule:nonzero;stroke:black;stroke-width:3.25px;stroke-linecap:round;"/>
    </g>
    <g transform="matrix(1,0,0,1,-62.1229,-43.4434)">
        <path d="M1358.25,202.24L1358.25,266.295" style="fill:none;fill-rule:nonzero;stroke:black;stroke-width:3.25px;stroke-linecap:round;"/>
    </g>
    <g transform="matrix(1,0,0,1,-62.1229,-43.4434)">
        <path d="M1175.91,164.74L1175.91,253.795" style="fill:none;fill-rule:nonzero;stroke:black;stroke-width:3.25px;stroke-linecap:round;"/>
    </g>
    <g transform="matrix(1,0,0,1,-62.1229,-43.4434)">
        <path d="M833.517,164.74L833.517,228.795" style="fill:none;fill-rule:nonzero;stroke:black;stroke-width:3.25px;stroke-linecap:round;"/>
    </g>
    <g transform="matrix(1,0,0,1,-62.1229,-43.4434)">
        <path d="M993.576,177.24L993.576,260.045" style="fill:none;fill-rule:nonzero;stroke:black;stroke-width:3.25px;stroke-linecap:round;"/>
    </g>
    <g transform="matrix(1,0,0,1,-62.1229,-43.4434)">
        <path d="M651.179,152.24L651.179,235.045" style="fill:none;fill-rule:nonzero;stroke:black;stroke-width:3.25px;stroke-linecap:round;"/>
    </g>
    <g transform="matrix(1,0,0,1,-62.1229,-43.4434)">
        <path d="M711.959,164.74L711.959,228.795" style="fill:none;fill-rule:nonzero;stroke:black;stroke-width:3.25px;stroke-linecap:round;"/>
    </g>
    <g transform="matrix(1,0,0,1,-62.1229,-43.4434)">
        <path d="M468.841,139.74L468.841,228.795" style="fill:none;fill-rule:nonzero;stroke:black;stroke-width:3.25px;stroke-linecap:round;"/>
    </g>
    <g transform="matrix(1,0,0,1,-62.1229,-43.4434)">
        <path d="M353.615,192.85L353.615,110.045" style="fill:none;fill-rule:nonzero;stroke:black;stroke-width:3.25px;stroke-linecap:round;"/>
    </g>
    <g transform="matrix(1,0,0,1,-62.1229,-43.4434)">
        <path d="M2245.73,133.775C2248.86,133.775 2251.49,134.589 2253.64,136.217C2255.66,137.975 2256.67,140.188 2256.67,142.857C2256.67,147.35 2254.36,151.549 2249.74,155.455C2245.05,159.361 2240.03,161.314 2234.7,161.314C2231.57,161.314 2228.93,160.501 2226.79,158.873C2224.77,157.115 2223.76,154.902 2223.76,152.232C2223.76,147.74 2226.1,143.541 2230.79,139.635C2235.35,135.729 2240.33,133.775 2245.73,133.775" style="fill-rule:nonzero;"/>
    </g>
    <g transform="matrix(1,0,0,1,-62.1229,-43.4434)">
        <path d="M2306.51,121.275C2309.64,121.275 2312.27,122.089 2314.42,123.717C2316.44,125.475 2317.45,127.688 2317.45,130.357C2317.45,134.85 2315.14,139.049 2310.51,142.955C2305.83,146.861 2300.81,148.814 2295.48,148.814C2292.35,148.814 2289.71,148.001 2287.57,146.373C2285.55,144.615 2284.54,142.402 2284.54,139.732C2284.54,135.24 2286.88,131.041 2291.57,127.135C2296.13,123.229 2301.11,121.275 2306.51,121.275" style="fill-rule:nonzero;"/>
    </g>
    <g transform="matrix(1,0,0,1,-62.1229,-43.4434)">
        <path d="M2063.39,146.275C2066.52,146.275 2069.15,147.089 2071.3,148.717C2073.32,150.475 2074.33,152.688 2074.33,155.357C2074.33,159.85 2072.02,164.049 2067.4,167.955C2062.71,171.861 2057.7,173.814 2052.36,173.814C2049.23,173.814 2046.6,173.001 2044.45,171.373C2042.43,169.615 2041.42,167.402 2041.42,164.732C2041.42,160.24 2043.76,156.041 2048.45,152.135C2053.01,148.229 2057.99,146.275 2063.39,146.275" style="fill-rule:nonzero;"/>
    </g>
    <g transform="matrix(1,0,0,1,-62.1229,-43.4434)">
        <path d="M1781.78,133.775C1784.9,133.775 1787.54,134.589 1789.69,136.217C1791.7,137.975 1792.71,140.188 1792.71,142.857C1792.71,147.35 1790.4,151.549 1785.78,155.455C1781.09,159.361 1776.08,161.314 1770.74,161.314C1767.62,161.314 1764.98,160.501 1762.83,158.873C1760.81,157.115 1759.8,154.902 1759.8,152.232C1759.8,147.74 1762.15,143.541 1766.83,139.635C1771.39,135.729 1776.37,133.775 1781.78,133.775" style="fill-rule:nonzero;"/>
    </g>
    <g transform="matrix(1,0,0,1,-62.1229,-43.4434)">
        <path d="M1903.33,133.775C1906.46,133.775 1909.1,134.589 1911.24,136.217C1913.26,137.975 1914.27,140.188 1914.27,142.857C1914.27,147.35 1911.96,151.549 1907.34,155.455C1902.65,159.361 1897.64,161.314 1892.3,161.314C1889.17,161.314 1886.54,160.501 1884.39,158.873C1882.37,157.115 1881.36,154.902 1881.36,152.232C1881.36,147.74 1883.71,143.541 1888.39,139.635C1892.95,135.729 1897.93,133.775 1903.33,133.775" style="fill-rule:nonzero;"/>
    </g>
    <g transform="matrix(1,0,0,1,-62.1229,-43.4434)">
        <path d="M1721,121.275C1724.12,121.275 1726.76,122.089 1728.91,123.717C1730.92,125.475 1731.93,127.688 1731.93,130.357C1731.93,134.85 1729.62,139.049 1725,142.955C1720.31,146.861 1715.3,148.814 1709.96,148.814C1706.84,148.814 1704.2,148.001 1702.05,146.373C1700.03,144.615 1699.02,142.402 1699.02,139.732C1699.02,135.24 1701.37,131.041 1706.05,127.135C1710.61,123.229 1715.59,121.275 1721,121.275" style="fill-rule:nonzero;"/>
    </g>
    <g transform="matrix(1,0,0,1,-62.1229,-43.4434)">
        <path d="M1538.66,108.775C1541.78,108.775 1544.42,109.589 1546.57,111.217C1548.59,112.975 1549.6,115.188 1549.6,117.857C1549.6,122.35 1547.28,126.549 1542.66,130.455C1537.97,134.361 1532.96,136.314 1527.62,136.314C1524.5,136.314 1521.86,135.501 1519.71,133.873C1517.69,132.115 1516.69,129.902 1516.69,127.232C1516.69,122.74 1519.03,118.541 1523.72,114.635C1528.27,110.729 1533.25,108.775 1538.66,108.775" style="fill-rule:nonzero;"/>
    </g>
    <g transform="matrix(1,0,0,1,-62.1229,-43.4434)">
        <path d="M1257.04,133.775C1260.17,133.775 1262.8,134.589 1264.95,136.217C1266.97,137.975 1267.98,140.188 1267.98,142.857C1267.98,147.35 1265.67,151.549 1261.04,155.455C1256.36,159.361 1251.34,161.314 1246.01,161.314C1242.88,161.314 1240.24,160.501 1238.1,158.873C1236.08,157.115 1235.07,154.902 1235.07,152.232C1235.07,147.74 1237.41,143.541 1242.1,139.635C1246.66,135.729 1251.64,133.775 1257.04,133.775" style="fill-rule:nonzero;"/>
    </g>
    <g transform="matrix(1,0,0,1,-62.1229,-43.4434)">
        <path d="M1378.6,183.775C1381.72,183.775 1384.36,184.589 1386.51,186.217C1388.53,187.975 1389.54,190.188 1389.54,192.857C1389.54,197.35 1387.23,201.549 1382.6,205.455C1377.92,209.361 1372.9,211.314 1367.56,211.314C1364.44,211.314 1361.8,210.501 1359.65,208.873C1357.64,207.115 1356.63,204.902 1356.63,202.232C1356.63,197.74 1358.97,193.541 1363.66,189.635C1368.22,185.729 1373.2,183.775 1378.6,183.775" style="fill-rule:nonzero;"/>
    </g>
    <g transform="matrix(1,0,0,1,-62.1229,-43.4434)">
        <path d="M1196.26,146.275C1199.39,146.275 1202.02,147.089 1204.17,148.717C1206.19,150.475 1207.2,152.688 1207.2,155.357C1207.2,159.85 1204.89,164.049 1200.27,167.955C1195.58,171.861 1190.56,173.814 1185.23,173.814C1182.1,173.814 1179.46,173.001 1177.32,171.373C1175.3,169.615 1174.29,167.402 1174.29,164.732C1174.29,160.24 1176.63,156.041 1181.32,152.135C1185.88,148.229 1190.86,146.275 1196.26,146.275" style="fill-rule:nonzero;"/>
    </g>
    <g transform="matrix(1,0,0,1,-62.1229,-43.4434)">
        <path d="M853.865,146.275C856.99,146.275 859.627,147.089 861.775,148.717C863.793,150.475 864.802,152.688 864.802,155.357C864.802,159.85 862.491,164.049 857.869,167.955C853.181,171.861 848.168,173.814 842.83,173.814C839.705,173.814 837.068,173.001 834.92,171.373C832.901,169.615 831.892,167.402 831.892,164.732C831.892,160.24 834.236,156.041 838.923,152.135C843.481,148.229 848.461,146.275 853.865,146.275" style="fill-rule:nonzero;"/>
    </g>
    <g transform="matrix(1,0,0,1,-62.1229,-43.4434)">
        <path d="M1013.92,158.775C1017.05,158.775 1019.69,159.589 1021.83,161.217C1023.85,162.975 1024.86,165.188 1024.86,167.857C1024.86,172.35 1022.55,176.549 1017.93,180.455C1013.24,184.361 1008.23,186.314 1002.89,186.314C999.763,186.314 997.127,185.501 994.978,183.873C992.96,182.115 991.951,179.902 991.951,177.232C991.951,172.74 994.295,168.541 998.982,164.635C1003.54,160.729 1008.52,158.775 1013.92,158.775" style="fill-rule:nonzero;"/>
    </g>
    <g transform="matrix(1,0,0,1,-62.1229,-43.4434)">
        <path d="M671.527,133.775C674.652,133.775 677.289,134.589 679.437,136.217C681.455,137.975 682.464,140.188 682.464,142.857C682.464,147.35 680.153,151.549 675.531,155.455C670.843,159.361 665.83,161.314 660.492,161.314C657.367,161.314 654.73,160.501 652.582,158.873C650.563,157.115 649.554,154.902 649.554,152.232C649.554,147.74 651.898,143.541 656.585,139.635C661.143,135.729 666.123,133.775 671.527,133.775" style="fill-rule:nonzero;"/>
    </g>
    <g transform="matrix(1,0,0,1,-62.1229,-43.4434)">
        <path d="M732.306,146.275C735.431,146.275 738.068,147.089 740.216,148.717C742.235,150.475 743.244,152.688 743.244,155.357C743.244,159.85 740.932,164.049 736.31,167.955C731.623,171.861 726.61,173.814 721.271,173.814C718.146,173.814 715.509,173.001 713.361,171.373C711.343,169.615 710.334,167.402 710.334,164.732C710.334,160.24 712.677,156.041 717.365,152.135C721.922,148.229 726.903,146.275 732.306,146.275" style="fill-rule:nonzero;"/>
    </g>
    <g transform="matrix(1,0,0,1,-62.1229,-43.4434)">
        <path d="M489.189,121.275C492.314,121.275 494.951,122.089 497.099,123.717C499.117,125.475 500.126,127.688 500.126,130.357C500.126,134.85 497.815,139.049 493.193,142.955C488.505,146.861 483.492,148.814 478.154,148.814C475.029,148.814 472.392,148.001 470.244,146.373C468.225,144.615 467.216,142.402 467.216,139.732C467.216,135.24 469.56,131.041 474.247,127.135C478.805,123.229 483.785,121.275 489.189,121.275" style="fill-rule:nonzero;"/>
    </g>
    <g transform="matrix(1,0,0,1,-62.1229,-43.4434)">
        <path d="M344.299,183.775C347.424,183.775 350.061,184.589 352.209,186.217C354.227,187.975 355.236,190.188 355.236,192.857C355.236,197.35 352.925,201.549 348.303,205.455C343.615,209.361 338.602,211.314 333.264,211.314C330.139,211.314 327.502,210.501 325.354,208.873C323.335,207.115 322.326,204.902 322.326,202.232C322.326,197.74 324.67,193.541 329.357,189.635C333.915,185.729 338.895,183.775 344.299,183.775" style="fill-rule:nonzero;"/>
    </g>
    <g transform="matrix(1,0,0,1,-62.1229,-43.4434)">
        <path d="M125.115,134.459L125.701,134.459C125.961,134.394 126.189,134.361 126.385,134.361C133.676,134.361 139.666,136.933 144.353,142.076C149.041,147.154 151.385,153.079 151.385,159.85C151.385,168.248 147.902,175.084 140.935,180.357C139.113,181.79 136.736,182.962 133.807,183.873C134.132,188.105 134.295,191.523 134.295,194.127C134.295,194.648 134.23,196.536 134.1,199.791C133.839,205.846 131.756,211.087 127.85,215.514C124.073,219.876 119.386,222.057 113.787,222.057C108.514,222.057 104.021,220.201 100.31,216.49C96.6,212.714 94.744,208.157 94.744,202.818C94.744,200.019 95.818,197.643 97.967,195.689C100.18,193.736 102.752,192.76 105.682,192.76C108.286,192.76 110.467,193.769 112.225,195.787C114.047,197.675 114.959,200.019 114.959,202.818C114.959,205.357 114.047,207.538 112.225,209.361C110.402,211.184 108.221,212.096 105.682,212.096C104.64,212.096 103.631,211.9 102.654,211.51C105.519,215.742 109.327,217.857 114.08,217.857C118.572,217.857 122.251,216.035 125.115,212.389C128.11,208.613 129.738,204.218 129.998,199.205C130.128,196.08 130.193,194.29 130.193,193.834C130.193,190.188 130.063,187.193 129.803,184.85C126.547,185.37 123.65,185.631 121.111,185.631C112.062,185.631 104.347,182.05 97.967,174.889C91.717,167.662 88.592,159.068 88.592,149.107C88.592,147.024 88.787,144.908 89.178,142.76C89.568,141.002 90.057,139.081 90.643,136.998C90.968,135.826 91.847,133.938 93.279,131.334C93.8,130.553 94.386,129.576 95.037,128.404C95.688,127.232 96.144,126.451 96.404,126.061C97.055,124.758 98.325,123.001 100.213,120.787C100.734,120.201 101.271,119.55 101.824,118.834C102.377,118.118 102.85,117.532 103.24,117.076C103.631,116.62 103.924,116.262 104.119,116.002C104.314,115.742 105.779,114.016 108.514,110.826C109.165,110.175 109.799,109.475 110.418,108.727C111.036,107.978 111.541,107.392 111.932,106.969C112.322,106.546 112.615,106.236 112.81,106.041C110.467,98.294 109.002,92.109 108.416,87.486C107.96,83.775 107.732,78.697 107.732,72.252C107.732,66.588 109.034,61.282 111.639,56.334C114.178,51.191 117.726,46.992 122.283,43.736C122.544,43.541 122.869,43.443 123.26,43.443C123.715,43.443 124.041,43.541 124.236,43.736C127.752,47.968 130.779,53.469 133.318,60.24C135.922,67.011 137.225,73.163 137.225,78.697C137.225,84.947 135.727,90.807 132.732,96.275C129.347,102.07 124.985,108.059 119.646,114.244C121.014,118.541 122.836,125.279 125.115,134.459M133.416,179.869C136.801,178.632 139.438,176.516 141.326,173.522C143.409,170.657 144.451,167.434 144.451,163.854C144.451,159.231 142.889,155.13 139.764,151.549C136.573,147.838 132.504,145.755 127.557,145.299C130.356,159.036 132.309,170.559 133.416,179.869M95.623,157.311C95.623,163.756 98.227,169.42 103.435,174.303C108.774,179.055 114.764,181.432 121.404,181.432C124.139,181.432 126.808,181.236 129.412,180.846C128.37,170.95 126.32,159.101 123.26,145.299C119.549,145.689 116.586,146.992 114.373,149.205C112.225,151.484 111.15,154.055 111.15,156.92C111.15,161.868 113.787,165.872 119.06,168.932C119.516,169.387 119.744,169.876 119.744,170.397C119.744,170.917 119.516,171.406 119.06,171.861C118.67,172.317 118.182,172.545 117.596,172.545C117.53,172.545 117.238,172.48 116.717,172.35C113.006,170.331 110.141,167.727 108.123,164.537C106.235,161.152 105.291,157.734 105.291,154.283C105.291,149.791 106.691,145.722 109.49,142.076C112.42,138.43 116.228,136.087 120.916,135.045C119.093,127.753 117.596,122.057 116.424,117.955C115.382,119.127 114.129,120.543 112.664,122.203C111.199,123.863 110.336,124.856 110.076,125.182C107.732,128.242 105.942,130.618 104.705,132.311C102.491,135.37 100.864,138.007 99.822,140.221C98.715,142.695 97.739,145.397 96.893,148.326C96.046,151.126 95.623,154.12 95.623,157.311M128.24,57.994C123.357,60.403 119.516,63.853 116.717,68.346C113.852,72.968 112.42,77.949 112.42,83.287C112.42,87.975 113.592,94.29 115.935,102.232C120.623,96.568 124.139,91.328 126.482,86.51C128.956,81.432 130.193,76.126 130.193,70.592C130.193,66.425 129.542,62.226 128.24,57.994" style="fill-rule:nonzero;"/>
    </g>
    <g transform="matrix(1,0,0,1,-62.1229,-43.4434)">
        <path d="M200.635,116.197C200.635,117.434 200.016,118.053 198.779,118.053C197.542,118.053 196.924,117.434 196.924,116.197L196.924,101.744L188.623,104.869L188.623,120.689C188.623,121.926 188.005,122.545 186.768,122.545C185.531,122.545 184.912,121.926 184.912,120.689L184.912,106.139L181.787,107.311C181.722,107.376 181.462,107.408 181.006,107.408C180.485,107.408 180.029,107.213 179.639,106.822C179.248,106.432 179.053,105.976 179.053,105.455L179.053,99.4C179.053,98.424 179.476,97.805 180.322,97.545L184.912,95.982L184.912,79.967L181.787,81.041C181.722,81.106 181.462,81.139 181.006,81.139C180.485,81.139 180.029,80.943 179.639,80.553C179.248,80.162 179.053,79.706 179.053,79.186L179.053,73.131C179.053,72.219 179.476,71.633 180.322,71.373L184.912,69.615L184.912,53.893C184.912,52.656 185.531,52.037 186.768,52.037C188.005,52.037 188.623,52.656 188.623,53.893L188.623,68.346L196.924,65.221L196.924,49.4C196.924,48.163 197.542,47.545 198.779,47.545C200.016,47.545 200.635,48.163 200.635,49.4L200.635,63.951L203.857,62.779C203.922,62.714 204.15,62.682 204.541,62.682C204.997,62.682 205.485,62.877 206.006,63.268C206.396,63.658 206.592,64.114 206.592,64.635L206.592,70.689C206.592,71.601 206.136,72.219 205.225,72.545L200.635,74.107L200.635,90.123L203.857,89.049C203.922,88.984 204.15,88.951 204.541,88.951C204.997,88.951 205.485,89.147 206.006,89.537C206.396,89.928 206.592,90.383 206.592,90.904L206.592,96.959C206.592,97.805 206.136,98.391 205.225,98.717L200.635,100.475L200.635,116.197M196.924,75.572L188.623,78.502L188.623,94.518L196.924,91.588L196.924,75.572" style="fill-rule:nonzero;"/>
    </g>
    <g transform="matrix(1,0,0,1,-62.1229,-43.4434)">
        <path d="M256.568,135.045C254.615,135.045 252.857,134.687 251.295,133.971C249.732,133.255 248.626,132.506 247.975,131.725C247.128,130.748 246.282,129.999 245.436,129.479C244.394,128.762 243.32,128.404 242.213,128.404C240.52,128.404 239.12,128.925 238.014,129.967C236.842,130.943 236.191,132.278 236.061,133.971C235.93,134.687 235.54,135.045 234.889,135.045C234.107,135.045 233.717,134.687 233.717,133.971C233.717,131.432 234.303,129.153 235.475,127.135C236.646,125.051 238.079,123.326 239.771,121.959C241.204,120.722 243.092,119.225 245.436,117.467C245.826,117.141 246.656,116.458 247.926,115.416C249.195,114.374 250.253,113.495 251.1,112.779C252.792,111.347 254.257,109.459 255.494,107.115C256.666,104.771 257.252,102.232 257.252,99.498C257.252,96.178 256.699,93.313 255.592,90.904C254.42,88.561 252.63,87.389 250.221,87.389C248.723,87.389 247.519,87.714 246.607,88.365C245.631,89.016 245.143,89.895 245.143,91.002C245.143,91.913 245.729,93.053 246.9,94.42C248.072,95.787 248.658,96.926 248.658,97.838C248.658,99.791 247.975,101.451 246.607,102.818C245.305,104.12 243.71,104.771 241.822,104.771C239.869,104.771 238.209,104.088 236.842,102.721C235.54,101.288 234.889,99.661 234.889,97.838C234.889,94.127 236.386,91.067 239.381,88.658C242.376,86.249 245.989,85.045 250.221,85.045C255.234,85.045 259.596,86.412 263.307,89.147C267.018,91.751 268.873,95.201 268.873,99.498C268.873,102.428 268.352,104.934 267.311,107.018C266.334,109.231 264.869,110.956 262.916,112.193C260.702,113.626 258.782,114.732 257.154,115.514C254.876,116.555 252.597,117.532 250.318,118.443C247.584,119.55 245.468,120.592 243.971,121.568C244.817,121.373 245.696,121.275 246.607,121.275C249.602,121.275 252.727,122.252 255.982,124.205C259.303,126.158 261.874,127.135 263.697,127.135C264.804,127.135 265.683,126.939 266.334,126.549C266.985,126.158 267.408,125.735 267.604,125.279C267.864,124.628 268.092,124.173 268.287,123.912C268.548,123.521 268.873,123.326 269.264,123.326C270.045,123.326 270.436,123.717 270.436,124.498C270.436,126.321 269.133,128.534 266.529,131.139C263.99,133.743 260.67,135.045 256.568,135.045" style="fill-rule:nonzero;"/>
    </g>
    <g transform="matrix(1,0,0,1,-62.1229,-43.4434)">
        <path d="M254.381,136.4C256.334,136.4 257.994,136.173 259.361,135.717C260.728,135.261 261.607,135.033 261.998,135.033C262.454,135.033 262.812,135.163 263.072,135.424C263.268,135.619 263.398,135.847 263.463,136.107C263.463,136.238 263.398,136.433 263.268,136.693L234.85,169.701L251.549,169.701L251.549,156.615C251.549,155.769 251.777,155.053 252.232,154.467C253.014,153.816 253.665,153.425 254.186,153.295C255.032,152.904 256.074,151.993 257.311,150.561C258.352,149.389 259.589,147.338 261.021,144.408C261.217,144.018 261.51,143.822 261.9,143.822C262.682,143.822 263.137,144.278 263.268,145.189L263.268,169.701L270.396,169.701C271.308,169.701 271.829,170.189 271.959,171.166C271.959,172.143 271.438,172.631 270.396,172.631L263.268,172.631L263.268,173.412C263.268,176.016 263.919,178.23 265.221,180.053C266.718,181.876 268.476,182.787 270.494,182.787C271.275,182.787 271.666,183.178 271.666,183.959C271.666,184.74 271.275,185.131 270.494,185.131C269.127,185.131 266.913,184.936 263.853,184.545C261.054,184.089 258.873,183.861 257.311,183.861C255.683,183.861 253.502,184.089 250.768,184.545C247.838,184.936 245.657,185.131 244.225,185.131C243.443,185.131 243.053,184.74 243.053,183.959C243.053,183.178 243.443,182.787 244.225,182.787C246.243,182.787 248.001,181.876 249.498,180.053C250.865,178.165 251.549,175.951 251.549,173.412L251.549,172.631L234.85,172.631C233.743,172.631 232.962,172.37 232.506,171.85C231.985,171.459 231.725,170.938 231.725,170.287C231.725,170.092 232.213,169.408 233.189,168.236C234.296,166.934 235.468,165.339 236.705,163.451C238.137,161.238 239.505,158.959 240.807,156.615C242.239,153.946 243.378,150.886 244.225,147.436C245.201,143.92 245.689,140.339 245.689,136.693C245.689,135.652 246.145,135.131 247.057,135.131C247.252,135.131 247.675,135.229 248.326,135.424C248.521,135.489 248.928,135.587 249.547,135.717C250.165,135.847 250.67,135.977 251.061,136.107C252.232,136.303 253.339,136.4 254.381,136.4" style="fill-rule:nonzero;"/>
    </g>
    <g transform="matrix(1,0,0,1,-62.1229,-43.4434)">
        <path d="M2041.42,228.791L2227.01,222.43L2227.01,234.937L2041.42,241.299L2041.42,228.791"/>
    </g>
    <g transform="matrix(1,0,0,1,-62.1229,-43.4434)">
        <path d="M2227.01,203.68L2194.01,204.811L2194.01,217.318L2227.01,216.187L2227.01,203.68"/>
    </g>
    <g transform="matrix(1,0,0,1,-62.1229,-43.4434)">
        <path d="M1759.8,210.045L1884.61,210.045L1884.61,222.545L1759.8,222.545L1759.8,210.045"/>
    </g>
    <g transform="matrix(1,0,0,1,-62.1229,-43.4434)">
        <path d="M1516.69,197.541L1702.27,203.903L1702.27,216.41L1516.69,210.049L1516.69,197.541"/>
    </g>
    <g transform="matrix(1,0,0,1,-62.1229,-43.4434)">
        <path d="M1702.27,185.153L1669.27,184.022L1669.27,196.529L1702.27,197.66L1702.27,185.153"/>
    </g>
    <g transform="matrix(1,0,0,1,-62.1229,-43.4434)">
        <path d="M1235.07,228.592L1359.88,260.677L1359.88,273.584L1235.07,241.498L1235.07,228.592"/>
    </g>
    <g transform="matrix(1,0,0,1,-62.1229,-43.4434)">
        <path d="M991.951,253.791L1177.54,247.43L1177.54,259.937L991.951,266.299L991.951,253.791"/>
    </g>
    <g transform="matrix(1,0,0,1,-62.1229,-43.4434)">
        <path d="M1177.54,228.68L1144.54,229.811L1144.54,242.318L1177.54,241.187L1177.54,228.68"/>
    </g>
    <g transform="matrix(1,0,0,1,-62.1229,-43.4434)">
        <path d="M710.334,222.545L835.142,222.545L835.142,235.045L710.334,235.045L710.334,222.545"/>
    </g>
    <g transform="matrix(1,0,0,1,-62.1229,-43.4434)">
        <path d="M467.216,222.541L652.804,228.903L652.804,241.41L467.216,235.049L467.216,222.541"/>
    </g>
    <g transform="matrix(1,0,0,1,-62.1229,-43.4434)">
        <path d="M652.804,210.153L619.804,209.022L619.804,221.529L652.804,222.66L652.804,210.153"/>
    </g>
    <g transform="matrix(1,0,0,1,-62.1229,-43.4434)">
        <path d="M2307.29,150.182C2308.79,150.182 2310.38,152.623 2312.08,157.506C2313.7,162.324 2314.52,166.913 2314.52,171.275C2314.52,174.986 2313.61,178.665 2311.78,182.311C2309.9,186.217 2307.65,189.602 2305.05,192.467L2297.04,201.451C2294.56,204.316 2292.35,207.636 2290.4,211.412C2288.57,215.058 2287.66,218.769 2287.66,222.545L2284.54,222.545L2284.54,197.545L2287.66,197.545C2289.42,196.438 2292.02,194.68 2295.48,192.272C2297.04,191.1 2299.38,189.147 2302.51,186.412C2305.05,184.068 2306.97,181.66 2308.27,179.186C2309.64,176.581 2310.32,173.945 2310.32,171.275C2310.32,165.091 2308.53,158.938 2304.95,152.818L2304.95,152.428C2304.95,151.842 2305.14,151.354 2305.53,150.963C2306.05,150.442 2306.64,150.182 2307.29,150.182" style="fill-rule:nonzero;"/>
    </g>
    <g transform="matrix(1,0,0,1,-62.1229,-43.4434)">
        <path d="M351.99,135.045L351.99,110.045L355.115,110.045C355.115,113.756 355.831,117.467 357.264,121.178C358.826,125.214 360.551,128.73 362.44,131.725C363.807,133.873 365.857,137.161 368.592,141.588C370.675,144.973 372.433,148.521 373.865,152.232C375.298,155.943 376.014,159.654 376.014,163.365C376.014,170.136 374.614,177.037 371.815,184.068C371.294,184.85 370.675,185.24 369.959,185.24C369.308,185.24 368.722,184.98 368.201,184.459C367.811,184.068 367.615,183.58 367.615,182.994L367.615,182.506C370.415,176.061 371.815,169.68 371.815,163.365C371.815,160.11 370.838,156.594 368.885,152.818C366.932,148.977 364.946,145.917 362.928,143.639C360.649,140.969 358.045,138.105 355.115,135.045L351.99,135.045" style="fill-rule:nonzero;"/>
    </g>
    <g transform="matrix(1,0,0,1,-62.1229,-43.4434)">
        <path d="M2084.74,151.549C2083.64,150.442 2083.08,149.107 2083.08,147.545C2083.08,145.982 2083.64,144.648 2084.74,143.541C2085.85,142.434 2087.19,141.881 2088.75,141.881C2090.31,141.881 2091.65,142.434 2092.75,143.541C2093.86,144.648 2094.41,145.982 2094.41,147.545C2094.41,149.107 2093.86,150.442 2092.75,151.549C2091.65,152.656 2090.31,153.209 2088.75,153.209C2087.19,153.209 2085.85,152.656 2084.74,151.549" style="fill-rule:nonzero;"/>
    </g>
    <g transform="matrix(1,0,0,1,-62.1229,-43.4434)">
        <path d="M1560.01,126.549C1558.9,125.442 1558.35,124.107 1558.35,122.545C1558.35,120.982 1558.9,119.648 1560.01,118.541C1561.12,117.434 1562.45,116.881 1564.01,116.881C1565.58,116.881 1566.91,117.434 1568.02,118.541C1569.12,119.648 1569.68,120.982 1569.68,122.545C1569.68,124.107 1569.12,125.442 1568.02,126.549C1566.91,127.656 1565.58,128.209 1564.01,128.209C1562.45,128.209 1561.12,127.656 1560.01,126.549" style="fill-rule:nonzero;"/>
    </g>
    <g transform="matrix(1,0,0,1,-62.1229,-43.4434)">
        <path d="M1035.28,176.549C1034.17,175.442 1033.62,174.107 1033.62,172.545C1033.62,170.982 1034.17,169.648 1035.28,168.541C1036.38,167.434 1037.72,166.881 1039.28,166.881C1040.84,166.881 1042.18,167.434 1043.28,168.541C1044.39,169.648 1044.94,170.982 1044.94,172.545C1044.94,174.107 1044.39,175.442 1043.28,176.549C1042.18,177.656 1040.84,178.209 1039.28,178.209C1037.72,178.209 1036.38,177.656 1035.28,176.549" style="fill-rule:nonzero;"/>
    </g>
    <g transform="matrix(1,0,0,1,-62.1229,-43.4434)">
        <path d="M510.54,126.549C509.434,125.442 508.88,124.107 508.88,122.545C508.88,120.982 509.434,119.648 510.54,118.541C511.647,117.434 512.982,116.881 514.544,116.881C516.107,116.881 517.441,117.434 518.548,118.541C519.655,119.648 520.208,120.982 520.208,122.545C520.208,124.107 519.655,125.442 518.548,126.549C517.441,127.656 516.107,128.209 514.544,128.209C512.982,128.209 511.647,127.656 510.54,126.549" style="fill-rule:nonzero;"/>
    </g>
</svg>
